<?xml version="1.0" encoding="UTF-8" standalone="no"?>
<!-- Created with Inkscape (http://www.inkscape.org/) -->

<svg
   xmlns:dc="http://purl.org/dc/elements/1.1/"
   xmlns:cc="http://creativecommons.org/ns#"
   xmlns:rdf="http://www.w3.org/1999/02/22-rdf-syntax-ns#"
   xmlns:svg="http://www.w3.org/2000/svg"
   xmlns="http://www.w3.org/2000/svg"
   xmlns:sodipodi="http://sodipodi.sourceforge.net/DTD/sodipodi-0.dtd"
   xmlns:inkscape="http://www.inkscape.org/namespaces/inkscape"
   width="348.80688"
   height="724.85675"
   id="svg3350"
   version="1.1"
   inkscape:version="0.48.4 r9939"
   sodipodi:docname="djembeman-simple.svg">
  <defs
     id="defs3352" />
  <sodipodi:namedview
     id="base"
     pagecolor="#ffffff"
     bordercolor="#666666"
     borderopacity="1.0"
     inkscape:pageopacity="0.0"
     inkscape:pageshadow="2"
     inkscape:zoom="0.92983886"
     inkscape:cx="174.40344"
     inkscape:cy="362.42839"
     inkscape:document-units="px"
     inkscape:current-layer="layer1"
     showgrid="false"
     inkscape:window-width="1600"
     inkscape:window-height="851"
     inkscape:window-x="0"
     inkscape:window-y="25"
     inkscape:window-maximized="1"
     fit-margin-top="0"
     fit-margin-left="0"
     fit-margin-right="0"
     fit-margin-bottom="0" />
  <metadata
     id="metadata3355">
    <rdf:RDF>
      <cc:Work
         rdf:about="">
        <dc:format>image/svg+xml</dc:format>
        <dc:type
           rdf:resource="http://purl.org/dc/dcmitype/StillImage" />
        <dc:title></dc:title>
      </cc:Work>
    </rdf:RDF>
  </metadata>
  <g
     inkscape:label="Layer 1"
     inkscape:groupmode="layer"
     id="layer1"
     transform="translate(-200.59656,-169.93379)">
    <path
       style="fill:#000000;fill-opacity:0.1;fill-rule:nonzero;stroke:none"
       d="m 426.37406,181.83271 c 31.68572,23.99444 57.20786,55.05845 81.80766,85.95578 17.66168,18.88733 31.70355,54.83596 -6.25162,58.45114 -36.21837,10.18225 -67.94208,37.86646 -70.67212,77.92237 -13.62845,30.59648 -33.13128,66.25664 -8.22426,96.6712 5.40966,-14.7274 22.37204,18.30317 19.02164,10.089 25.95086,-1.00252 55.61137,-3.39652 79.08,-18.84487 27.13646,-19.4766 34.38572,15.46286 23.25117,34.61562 -7.02845,37.18542 -19.73188,73.22399 -21.03016,111.4002 -4.86584,47.0019 -23.16219,92.23854 -21.62654,140.00098 -8.5596,27.55649 -2.81185,57.14676 10.45634,82.14395 13.13461,15.78064 -13.80001,49.54159 -22.24449,27.05388 -4.30321,18.42764 -27.51623,-31.35165 -11.18441,-33.39155 3.8988,-28.08979 -34.82961,-57.19027 -4.22516,-81.14819 7.09861,-26.12493 12.54094,-52.68402 15.72109,-79.6618 2.04656,-30.89673 18.78181,-60.55442 9.04122,-91.66963 -10.68317,-24.08137 15.20724,-53.95472 2.21838,-73.41911 -24.87853,-0.88465 -36.57418,18.45709 -36.2104,33.44504 -7.43137,-2.27242 -1.2824,14.51138 0.14058,6.29823 1.2458,-2.04868 8.89924,14.32205 -4.56892,9.46277 4.22835,1.46758 -5.48818,-0.25965 -0.79056,5.76157 4.72942,11.44203 -6.66493,24.7914 -5.60682,16.71093 0.029,12.03985 -11.6173,0.38793 -4.71497,7.62801 4.14944,4.37891 -8.61335,-0.0886 -7.15981,4.50726 -4.38914,3.49128 -12.21252,10.61969 -9.65948,11.99379 -6.37887,-7.47919 -0.46759,10.82785 -9.825,0.59955 -0.78834,13.40242 -9.2182,-1.25143 -11.04596,10.27639 -2.94229,-9.65088 -6.98703,-15.11197 -4.63818,-3.52407 -8.11491,5.0858 -8.66457,6.59513 -9.60811,2.14964 -2.72447,4.49201 -8.79204,8.66228 -6.2718,6.97585 -0.31941,-14.50911 -8.67245,7.49088 -5.67931,-9.32892 -2.20838,18.02036 -3.62336,-12.5806 -5.375,7.125 -0.60419,-15.19425 -18.58148,12.47098 -16.59335,-6.76584 -19.248,15.5337 10.04204,-17.23938 -7.46283,0.46851 0.98193,-8.99596 0.24875,-20.41484 -2.87286,-7.30135 -11.67724,8.47468 -2.98767,-7.05134 -14.19596,3.47368 13.80304,-15.09533 -18.33352,-8.12747 -16.26583,-25.0948 2.06963,-8.01518 -8.342,1.41106 0.091,-5.71427 -28.01238,-2.22888 19.93462,-4.6877 -6.64403,-2.23956 14.33439,-4.68021 -23.21851,-7.59956 0.8273,-9.67559 -20.47736,-3.31451 26.42824,4.8272 -11.85154,-5.26297 17.74069,-1.9111 -5.43651,-14.53816 10.71807,-16.26281 -1.26012,-5.55747 10.3021,-8.26335 -3.0906,-7.29225 -13.64309,-2.69529 7.52451,-25.93053 -15.63021,-30.76055 -15.737,-9.66429 -64.36492,-27.21964 -54.30401,-30.80237 12.66673,29.48819 9.88238,58.79237 4.55572,88.83514 -3.64906,26.01296 24.55361,61.22451 -3.55848,74.19741 10.55509,1.63902 16.56119,-7.8344 12.72219,-3.82233 9.3592,10.44056 -26.94438,21.9576 -1.81102,7.11597 -31.015,20.11216 -9.169,-31.32187 -21.26364,-47.63136 -9.00304,-48.25314 -10.71839,-98.91913 -32.44414,-143.96271 -7.93391,-37.05872 43.39816,-20.43395 57.22151,-3.75479 21.77193,18.00024 50.21641,37.50444 76.52458,32.64346 17.06825,-0.31912 -22.30596,-56.54021 -21.01198,-41.8655 -4.84936,-25.69032 -34.2329,-50.77914 -21.40851,-76.86935 21.2138,-18.86286 56.32219,-13.0336 73.47518,-37.16164 7.55734,-4.75958 31.57676,-0.0792 12.86719,-10.36913 -9.96763,-22.45703 -10.6041,-47.87512 -13.89058,-70.07728 -10.21285,-11.19099 -31.33696,-20.46588 -5.41056,-11.46281 2.80121,-8.71185 -21.12499,-24.77222 -0.16779,-11.15882 2.71099,-10.26681 -12.76543,-38.28051 0.53997,-12.94598 11.35093,29.12492 7.28203,-15.4571 10.00866,-3.36238 0.41834,11.80306 3.22065,25.35533 8.84791,8.96955 -11.85962,33.77174 24.26898,40.27019 34.19428,67.11073 10.21517,17.89525 4.21116,34.59941 28.80677,22.58975 22.49249,-6.98576 80.39021,-13.80715 46.00706,-44.19541 -21.03757,-23.06697 -27.47385,-46.45191 -53.02055,-61.31064 -10.59851,-15.8634 7.72757,2.907 -6.85702,-5.53077 -12.15249,-3.02727 -40.94954,-2.2396 -17.59389,-9.94811 -9.10192,-7.46067 -31.97341,-24.91106 -6.98439,-11.58405 10.63282,6.38949 -24.1316,-29.46595 0.7177,-8.49742 21.36174,20.1281 -18.26996,-21.16884 6.69999,-3.77457 22.30725,21.25287 -15.52739,-20.5077 6.5602,-2.4267 l 3.82376,3.14354 4.99973,4.08636 0,0 z"
       id="path3086"
       inkscape:connector-curvature="0" />
    <path
       style="fill:#ffffff;fill-opacity:1;fill-rule:nonzero;stroke:none"
       d="m 382.87406,380.08272 c 26.019,30.49283 -8.60776,66.57943 -7.80978,100.13553 -9.93232,26.63099 -31.28936,-21.34072 -40.27727,-36.73707 -13.58702,-20.99466 -25.46587,-55.62733 10.86701,-56.81661 13.35768,-3.48297 43.46443,-13.85625 37.22004,-6.58185 z"
       id="path3142"
       inkscape:connector-curvature="0" />
    <path
       style="fill:#ffffff;fill-opacity:0.4;fill-rule:nonzero;stroke:none"
       d="m 374.12406,500.45772 c 2.51186,5.35997 13.07832,3.29401 9.375,0.875 3.92597,-0.2275 12.15385,7.8843 9.28711,2.30663 1.89929,-5.45876 10.10791,1.11455 9.83789,1.81837 6.7982,0.18582 20.07565,4.85727 15.95117,2.6289 4.4803,0.74316 8.61335,3.30782 15.15039,11.26172 12.94434,9.40476 11.15841,15.02898 15.61556,24.80078 4.02322,14.23542 -0.43955,10.05812 -9.21712,-0.5664 -3.00115,-11.25027 -35.7071,-11.90849 -32.09375,-15.35938 13.09165,2.46481 25.51306,8.97941 19.21875,6.98438 16.75062,9.1268 11.57817,21.18898 18.48975,24.34833 11.32255,-5.50401 4.27199,24.47742 4.20556,19.18878 -2.14224,2.70709 -7.21524,15.40791 -6.86719,10.79101 -3.30521,4.65939 -12.72205,18.55296 -8.32812,12.54688 -2.72876,-1.0874 -13.13401,9.61098 -10.5,7.5 -4.8319,6.41781 -17.08349,13.12995 -13.25,7.875 -5.20779,-3.04978 -19.57978,-2.9219 -13.97856,1.02502 -9.14497,-0.98876 -9.69197,2.02464 -20.29293,-1.40784 -3.24897,0.32947 -13.42186,-3.94445 -10.97851,-2.99218 -3.96991,-1.05818 -13.5114,-10.92842 -10.79493,-5.20703 -7.35762,1.44345 -11.65462,-3.2243 -16.83007,-11.54297 -2.25098,0.48945 -10.93174,-28.61745 -6.77149,-15.58008 -0.26992,2.9121 -0.943,-9.37125 -2.13476,-11.23242 -6.30411,-2.0415 -2.88048,-23.95355 -2.71875,-20.3125 -2.40381,-12.39357 8.91015,-34.66583 8,-25.75 4.5527,-4.37817 21.50775,-7.40327 20.15625,-13.6875 6.72729,17.15378 5.06119,42.75558 21.95312,51.40625 -8.71228,-19.49079 17.15389,22.07653 6.67774,-1.63868 -11.4857,-25.73469 18.82113,3.92205 10.08789,4.91993 4.03131,12.13792 -18.99476,-38.8505 -4.22776,-12.33348 7.72363,4.54591 10.93083,9.32676 9.35276,8.20848 0.51547,-12.90429 -22.37119,-33.06863 0.96314,-16.63257 7.31697,-7.93217 -42.57237,-47.46391 -25.33814,-44.24243 z"
       id="path3152"
       inkscape:connector-curvature="0" />
    <path
       style="fill:#000000;fill-opacity:0.1;fill-rule:nonzero;stroke:none"
       d="m 266.12406,668.45772 c -0.77118,17.71806 18.42696,37.76105 -4.84961,49.55468 -9.88486,19.84953 -5.44999,58.67585 -30.58789,62.60157 -15.52197,-9.6715 -26.58315,-29.30077 -10.76038,-45.89065 13.5967,-18.73819 21.26472,-45.23002 20.44788,-64.2656 9.79008,27.77058 19.34803,-32.07605 25.75,-2 z"
       id="path3536"
       inkscape:connector-curvature="0" />
  </g>
</svg>
