<?xml version="1.0" encoding="UTF-8" standalone="no"?>
<!-- Created with Inkscape (http://www.inkscape.org/) -->

<svg
   xmlns:dc="http://purl.org/dc/elements/1.1/"
   xmlns:cc="http://creativecommons.org/ns#"
   xmlns:rdf="http://www.w3.org/1999/02/22-rdf-syntax-ns#"
   xmlns:svg="http://www.w3.org/2000/svg"
   xmlns="http://www.w3.org/2000/svg"
   xmlns:sodipodi="http://sodipodi.sourceforge.net/DTD/sodipodi-0.dtd"
   xmlns:inkscape="http://www.inkscape.org/namespaces/inkscape"
   id="svg3074"
   version="1.1"
   inkscape:version="0.48.4 r9939"
   width="360"
   height="738.75"
   xml:space="preserve"
   sodipodi:docname="N.Djembe.man.eps"><metadata
     id="metadata3080"><rdf:RDF><cc:Work
         rdf:about=""><dc:format>image/svg+xml</dc:format><dc:type
           rdf:resource="http://purl.org/dc/dcmitype/StillImage" /><dc:title></dc:title></cc:Work></rdf:RDF></metadata><defs
     id="defs3078" /><sodipodi:namedview
     pagecolor="#ffffff"
     bordercolor="#666666"
     borderopacity="1"
     objecttolerance="10"
     gridtolerance="10"
     guidetolerance="10"
     inkscape:pageopacity="0"
     inkscape:pageshadow="2"
     inkscape:window-width="1224"
     inkscape:window-height="857"
     id="namedview3076"
     showgrid="false"
     inkscape:zoom="0.92047377"
     inkscape:cx="180"
     inkscape:cy="369.375"
     inkscape:window-x="0"
     inkscape:window-y="25"
     inkscape:window-maximized="0"
     inkscape:current-layer="g3082" /><g
     id="g3082"
     inkscape:groupmode="layer"
     inkscape:label="ink_ext_XXXXXX"
     transform="matrix(1.25,0,0,-1.25,0,738.75)"><g
       id="g3084"
       transform="scale(0.1,0.1)"><path
         d="m 1841,5791 c 75,-30 129,-102 175,-168 16,-15 30,-8 48,-2 17,-57 71,-82 108,-127 10,-8 -1,-27 17,-27 l -5,-5 c 127,-118 230,-255 338,-386 22,-61 65,-113 89,-173 31,-39 62,-85 46,-137 -4,-19 -6,-44 -27,-52 -12,10 -24,-10 -38,-10 -19,-26 -50,-20 -72,-38 -5,0 -8,7 -14,4 -2,-2 -6,-3 -5,-7 l 5,-5 c -26,-24 -74,-30 -106,-57 -107,-40 -209,-92 -312,-142 -71,-15 -73,-92 -106,-139 -3,-53 -44,-91 -52,-142 -31,-109 -72,-214 -116,-319 -17,-65 -39,-128 -67,-189 -40,-69 -66,-174 -24,-248 9,-33 39,-58 48,-88 l 22,-8 c -10,-13 -3,-32 2,-45 11,15 16,44 36,45 -5,-13 -18,-27 -17,-40 l 8,0 c -1,-5 0,-9 4,-12 11,13 17,39 34,45 l -12,-26 19,12 c -8,-16 -19,-30 -14,-51 12,3 17,24 29,34 6,-7 -2,-18 -5,-26 8,-2 12,19 24,16 -2,-5 -7,-9 -5,-16 l 12,0 c -1,-15 -18,-29 -10,-41 12,11 19,30 34,41 6,-17 -31,-34 -12,-48 l 29,31 c 7,-12 -27,-38 0,-34 7,10 14,24 26,27 l -9,-27 16,7 c 2,-10 -9,-15 -12,-24 12,5 27,22 41,22 -5,-17 -21,-29 -31,-43 l 5,-5 c 9,8 17,21 29,24 l 2,-19 14,5 c -1,-14 11,-19 22,-20 164,0 314,60 466,104 79,32 148,90 235,105 48,-3 68,-57 79,-96 14,-94 -40,-167 -55,-252 11,-36 -20,-66 -19,-103 -6,-77 -23,-155 -51,-226 -44,-179 -89,-366 -84,-556 -36,-215 -78,-426 -134,-632 -30,-155 -42,-354 -46,-511 1,-9 -22,-18 -5,-26 -2,-14 -3,-31 -16,-41 -6,2 -8,-5 -12,-7 -2,-36 12,-69 7,-103 -3,-96 -1,-194 36,-279 4,-92 102,-149 96,-242 12,-16 10,-45 0,-65 -18,-11 10,-39 -10,-55 -8,-12 -24,-21 -38,-17 -7,-34 -42,-33 -60,-60 -28,2 -42,-34 -70,-31 14,14 29,29 19,50 -11,13 -7,33 -26,43 -13,-19 -40,-9 -50,-26 3,-21 12,-33 19,-53 5,-6 14,-6 19,-14 -53,5 -70,63 -82,105 5,51 -35,83 -31,132 10,92 13,189 15,286 -3,4 -8,2 -12,2 -3,36 -39,53 -46,87 -37,32 -30,85 -65,120 -15,60 -26,138 27,185 25,18 52,30 67,57 -13,3 -7,21 -5,29 l 22,19 c 9,162 84,303 93,468 6,192 63,373 94,557 35,82 14,191 9,278 -18,67 -32,135 -33,209 21,27 9,67 19,99 22,96 31,197 72,285 8,16 -2,37 -19,39 -84,-9 -160,-37 -238,-60 -30,-22 -80,-23 -91,-63 -8,-1 -16,0 -22,-7 16,-10 44,10 56,-7 -14,-4 -30,-1 -41,-12 l 14,-10 -2,-2 c 8,-6 23,2 21,-10 l -26,-5 c 9,-10 21,0 34,-7 l 0,-7 -32,-5 c 6,-6 18,-8 29,-7 l 0,-7 c -14,5 -30,2 -41,-7 8,-11 23,-11 36,-10 l 0,-5 c -11,-2 -25,4 -33,-5 3,-12 22,-6 31,-14 l -29,-5 c 9,-9 24,-1 34,-7 l 0,-7 c -15,-4 -34,9 -48,-3 16,-12 39,-6 57,-14 l 0,-5 c -16,0 -39,11 -57,0 9,-8 23,-3 31,-12 l 0,-5 c -10,-3 -16,8 -24,0 10,-16 37,-8 48,-24 -14,-4 -32,12 -46,3 16,-19 49,-12 56,-36 l -12,-3 12,-12 c -18,-13 -45,-24 -72,-9 l -5,-5 c 13,-18 44,-14 45,-38 -18,-4 -32,18 -48,7 9,-16 36,-16 36,-36 -16,8 -30,21 -48,26 -4,-20 28,-20 29,-38 -5,0 -9,-1 -12,-5 13,-5 14,-27 10,-34 -17,3 -31,13 -46,20 l -2,-3 c 11,-14 33,-27 38,-45 l -29,12 c 0,-17 32,-17 27,-36 l -48,36 -5,-5 31,-41 c -7,-4 -14,7 -21,10 -5,-8 16,-12 9,-24 -13,9 -30,18 -43,31 -11,-18 25,-29 26,-48 -2,0 -6,0 -7,-3 1,-6 13,-10 5,-16 -7,6 -19,12 -26,21 l -3,-2 c 4,-12 23,-17 19,-31 -16,7 -24,21 -38,33 l -7,-7 c 14,-14 30,-27 33,-46 -15,6 -25,23 -38,34 l -2,-2 c 9,-13 24,-26 26,-39 -11,3 -17,15 -26,22 -9,-12 15,-16 12,-29 -17,0 -18,19 -32,26 l -4,-4 c 11,-17 31,-31 33,-48 -6,4 -15,8 -21,16 -5,-10 17,-19 9,-31 l -38,43 c -3,-13 17,-24 14,-40 -17,0 -21,37 -43,24 l 19,-48 c 1,-2 -14,7 -14,-5 -13,3 -21,17 -31,26 -9,-16 13,-32 14,-50 -17,6 -17,38 -36,36 0,-17 18,-33 22,-51 -20,8 -24,36 -41,48 -4,-21 16,-38 19,-60 -17,3 -14,46 -38,27 7,-16 14,-32 21,-48 -13,4 -17,23 -26,31 -1,-11 9,-23 9,-36 -15,10 -16,38 -36,46 l -4,-5 c 5,-22 18,-43 16,-65 -12,10 -12,33 -21,48 -1,1 -3,3 -5,2 -7,-11 4,-30 0,-43 -5,13 -5,30 -17,39 -5,-18 10,-36 5,-53 -9,8 -11,29 -17,43 -1,1 -2,3 -5,2 -7,-19 17,-44 -2,-57 -3,9 -2,22 -12,26 l -2,-29 c -12,0 -6,15 -15,20 l -2,-27 -5,0 c -3,18 -2,45 -19,51 -3,-17 9,-38 -7,-48 -5,16 -11,32 -12,50 -22,-4 -5,-35 -17,-46 -11,-1 2,-18 -12,-12 -9,14 -3,36 -15,46 l -2,-41 c -10,10 -5,22 -10,36 -13,-7 -4,-33 -7,-50 l -5,0 c -2,21 -3,35 -14,50 -4,-9 -2,-27 -2,-41 l -5,0 c -4,15 -1,32 -12,44 -14,-10 -3,-35 -10,-51 l -5,-12 c -2,13 6,42 -7,53 -8,-13 -2,-36 -14,-43 -2,15 4,33 -5,45 -17,-4 -7,-24 -12,-36 -19,6 -5,-20 -19,-19 3,21 3,49 0,67 -16,-11 -9,-36 -17,-52 l -5,0 0,52 c -8,0 -5,-10 -9,-14 0,-13 -3,-35 -12,-43 l 2,43 c -20,-4 -7,-45 -38,-34 -6,16 15,29 -3,41 -8,-11 -12,-30 -21,-33 -1,4 1,9 -3,12 -9,-11 -4,-32 -19,-36 -2,7 3,11 5,16 l -5,5 c -7,0 -9,-11 -14,-9 -7,8 9,16 0,26 -4,-6 -8,-12 -10,-19 l -7,0 c 3,17 18,36 9,53 -13,-13 -16,-39 -31,-48 -3,16 17,35 10,50 l -34,-43 c -8,15 15,38 5,55 -19,-8 -33,-35 -53,-34 10,14 17,29 29,41 l -2,3 c -18,-9 -33,-32 -48,-41 5,18 28,36 19,55 -16,-8 -31,-38 -48,-36 3,11 14,18 17,29 -18,-2 -33,-25 -53,-27 5,18 27,32 33,51 l -4,5 c -22,-15 -41,-37 -65,-44 3,17 21,21 29,36 -11,3 -20,-16 -32,-9 -3,17 24,24 22,38 -14,-8 -26,-21 -43,-24 10,10 17,19 31,29 l 7,7 c -7,7 -17,7 -24,0 -5,-6 -12,-12 -21,-9 l -3,9 c -9,-2 -15,-12 -26,-12 2,16 21,25 29,39 -18,11 -27,-14 -44,-12 -1,10 24,16 10,26 -10,-2 -16,-15 -29,-12 0,14 19,20 22,34 -10,-3 -23,-20 -36,-15 -6,11 14,22 17,34 -14,4 -36,-29 -41,-7 3,3 12,1 9,9 -7,7 -13,-4 -19,5 9,7 35,4 31,22 -12,13 -29,-6 -43,7 5,14 49,10 31,31 -18,-1 -33,-17 -50,-14 11,17 37,23 50,40 l -4,5 c -15,-15 -40,-11 -58,-12 14,4 41,10 53,27 -21,6 -37,-13 -60,-10 l 0,5 c 23,1 45,9 60,26 -17,3 -36,-5 -55,-2 8,5 27,-1 31,14 -11,10 -37,0 -41,10 12,5 36,-3 36,17 -16,6 -38,-6 -58,-5 -4,-1 -9,0 -12,5 23,0 47,3 63,14 l -63,-5 0,5 c 15,9 35,7 46,19 -13,0 -34,-1 -43,7 18,7 42,6 55,20 l -46,-3 0,7 c 4,1 6,-4 10,-2 l 2,2 c -3,11 -16,17 -28,17 l 0,15 c 16,1 37,-6 48,9 -4,15 -20,12 -32,12 -3,-8 -12,-5 -16,-2 -3,1 -3,5 -3,7 12,2 29,-4 36,5 -17,0 -36,7 -43,21 l 7,8 c -3,7 -14,4 -9,14 18,4 44,1 62,12 5,32 -39,18 -58,29 14,8 44,-20 48,7 -18,14 -45,3 -69,10 0,2 -1,3 -3,4 22,-1 51,-7 70,5 2,14 -13,15 -22,17 -21,9 -45,-19 -55,7 l 46,0 c -3,6 -18,10 -12,22 6,-3 8,5 12,7 -12,8 -31,17 -34,34 l 5,0 0,21 29,0 c 2,6 -9,15 -17,15 -3,1 -2,4 -2,7 6,-1 12,-3 19,-3 35,24 -13,39 -24,56 -127,111 -273,194 -408,285 -40,15 -82,37 -113,63 -15,-31 5,-64 19,-92 13,-70 30,-140 60,-204 26,-94 8,-193 -31,-276 -31,-192 20,-387 58,-578 -11,-48 72,-115 -12,-127 -24,-13 -52,-46 -82,-27 -10,-7 -14,-16 -12,-28 l 10,-10 -8,0 c -3,-7 5,-7 8,-10 10,10 31,10 24,29 1,2 4,7 9,5 4,-7 10,-17 19,-10 0,-16 8,-30 24,-33 l 8,7 2,-7 12,14 -5,5 c -1,-1 -2,-3 -5,-2 15,18 -30,42 3,55 4,-16 0,-35 12,-48 11,1 17,8 26,0 -15,-4 -21,-20 -29,-34 l -4,5 c -19,-29 -36,-67 -77,-72 -18,3 -29,1 -34,22 40,0 81,3 103,43 3,6 -4,8 -7,12 -15,-25 -41,-39 -69,-29 -11,4 -24,10 -29,22 l -7,-8 c 0,-8 -8,-16 2,-26 -1,-7 3,-18 -7,-19 -5,6 0,21 -12,19 -10,-8 -1,-19 0,-29 -16,-3 -10,15 -15,22 l 0,21 c 7,5 13,-4 20,-7 l 12,19 c -22,12 -18,42 -27,63 4,6 11,16 19,17 l 5,-5 7,7 c -48,41 -29,107 -33,166 -49,205 -69,412 -103,624 0,49 -20,99 -20,148 -29,95 -36,198 -76,288 -30,108 -92,204 -108,317 -2,21 19,27 24,46 l 38,48 c 32,2 67,33 96,7 23,11 40,-19 65,-17 58,-13 107,-48 161,-72 4,-13 21,-3 21,-17 6,-13 22,-12 34,-19 93,-56 152,-127 245,-180 116,-52 220,-128 340,-163 l 8,-7 c 10,6 0,14 0,21 9,-2 16,-9 24,-14 4,9 -9,16 -8,26 5,-1 9,-6 12,-9 5,2 2,6 3,9 18,-7 30,-13 43,-28 l 5,4 c -12,18 -40,35 -29,56 5,-1 10,-9 14,-3 l 0,3 17,-5 c -3,9 -9,17 -9,26 l 9,0 c 10,-18 22,-35 36,-50 l 5,5 c -11,18 -32,34 -24,57 -64,78 -134,153 -180,238 -25,21 -18,62 -43,84 -9,50 -48,95 -55,149 -30,81 -60,163 -111,232 0,9 1,21 -7,24 l 0,-7 c -17,28 -9,64 -36,91 7,32 13,66 29,94 14,7 35,5 43,22 14,0 23,13 38,12 44,28 85,58 132,76 l 12,12 c 75,15 147,26 221,48 46,29 83,59 127,96 41,66 124,73 197,60 9,1 16,-11 24,-4 -12,23 -38,31 -57,48 -24,6 -26,27 -36,45 11,18 -11,31 -10,46 l -2,-3 c -3,4 -3,10 -3,15 1,-3 -2,-8 3,-10 l 2,0 c -2,19 -7,45 -5,65 -36,41 -48,100 -62,154 -5,76 -13,139 7,211 -29,95 -131,144 -211,182 l 0,15 c 59,-8 102,-52 163,-56 l 5,5 c -32,44 -66,93 -111,125 -10,6 -8,17 -12,26 24,8 29,-28 51,-33 21,-13 37,-48 62,-31 -26,70 -41,145 -77,211 3,6 9,5 15,5 14,-51 46,-96 67,-144 l 10,-8 c -6,-19 6,-44 26,-60 26,47 -1,106 14,156 8,2 12,-7 10,-14 8,-53 2,-103 14,-154 l 12,-9 c 18,32 24,68 41,101 4,1 7,3 12,2 7,-17 -11,-29 -12,-46 -6,-64 -9,-129 3,-192 5,-13 14,-18 14,-33 108,-49 197,-159 221,-274 l -3,-14 c 11,-11 37,-34 44,-55 22,-52 46,-113 31,-171 5,3 20,14 31,19 93,78 233,-13 329,51 86,66 188,96 290,122 9,5 16,15 24,22 -3,53 -55,87 -79,132 -68,107 -152,200 -216,309 -22,35 -73,35 -74,82 10,5 34,16 21,34 -3,6 -9,4 -14,4 -16,-5 2,-43 -22,-26 -12,2 -13,12 -19,22 -25,31 -68,44 -79,86 l 12,14 c -10,3 -16,22 -27,15 -8,13 -30,12 -28,29 -7,16 -20,-3 -29,7 -30,15 -60,6 -94,12 -56,33 -129,27 -192,24 -2,16 17,14 24,24 36,11 79,3 111,24 -48,49 -113,68 -168,105 -14,13 -38,25 -29,48 30,2 58,-19 86,-31 22,-24 52,-32 77,-41 -42,39 -100,83 -130,135 l 5,14 c 65,-16 93,-110 159,-120 -38,39 -67,73 -101,115 l -3,17 c 68,0 96,-86 154,-113 12,9 -1,20 -7,27 -22,41 -72,52 -77,101 54,-13 89,-71 137,-99"
         style="fill:#000000;fill-opacity:1;fill-rule:nonzero;stroke:none"
         id="path3086" /><path
         d="m 2052,5578 c -7,3 -16,3 -19,9 1,4 0,16 9,17 l 17,-2 -7,-24"
         style="fill:#ffffff;fill-opacity:1;fill-rule:nonzero;stroke:none"
         id="path3088" /><path
         d="m 2050,5570 c 0,-4 -1,-9 -5,-12 -7,-1 -10,7 -15,10 1,10 16,10 20,2"
         style="fill:#ffffff;fill-opacity:1;fill-rule:nonzero;stroke:none"
         id="path3090" /><path
         d="m 2052,5546 c 1,-7 -2,-12 -7,-16 -7,1 -15,4 -17,12 l 0,12 c 8,-3 23,6 24,-8"
         style="fill:#ffffff;fill-opacity:1;fill-rule:nonzero;stroke:none"
         id="path3092" /><path
         d="m 2117,5544 c -12,-5 -19,-26 -34,-7 l -2,2 c 13,3 22,22 36,5"
         style="fill:#ffffff;fill-opacity:1;fill-rule:nonzero;stroke:none"
         id="path3094" /><path
         d="m 2026,5501 c -9,-12 -23,1 -32,-3 -13,17 6,25 17,32 4,-12 21,-13 15,-29"
         style="fill:#ffffff;fill-opacity:1;fill-rule:nonzero;stroke:none"
         id="path3096" /><path
         d="m 2093,5520 c -4,-3 -1,-13 -10,-10 -2,5 -8,12 -2,17 6,3 8,-5 12,-7"
         style="fill:#ffffff;fill-opacity:1;fill-rule:nonzero;stroke:none"
         id="path3098" /><path
         d="m 2081,5506 -27,-24 c -6,3 -4,9 -4,14 9,7 21,28 31,10"
         style="fill:#ffffff;fill-opacity:1;fill-rule:nonzero;stroke:none"
         id="path3100" /><path
         d="m 1997,5489 -3,-27 c -7,1 -16,7 -19,15 l 5,17 c 10,3 7,-15 17,-5"
         style="fill:#ffffff;fill-opacity:1;fill-rule:nonzero;stroke:none"
         id="path3102" /><path
         d="m 2045,5484 c -1,-6 -3,-13 -10,-14 -3,-2 -5,3 -7,4 -4,-5 -5,-12 -12,-16 -6,-1 -14,0 -14,7 0,8 -2,20 9,19 6,1 14,0 15,-7 3,6 12,19 19,7"
         style="fill:#ffffff;fill-opacity:1;fill-rule:nonzero;stroke:none"
         id="path3104" /><path
         d="m 2172,5462 c 2,-6 -2,-10 -7,-12 -8,0 -14,9 -17,15 l 7,17 c 7,-4 22,-6 17,-20"
         style="fill:#ffffff;fill-opacity:1;fill-rule:nonzero;stroke:none"
         id="path3106" /><path
         d="m 2153,5441 0,-12 c -7,-1 -18,1 -24,7 0,9 -2,11 2,19 9,-2 19,-5 22,-14"
         style="fill:#ffffff;fill-opacity:1;fill-rule:nonzero;stroke:none"
         id="path3108" /><path
         d="m 2138,5417 c -5,-9 -12,-9 -21,-5 -4,-1 -5,3 -7,5 0,20 25,11 28,0"
         style="fill:#ffffff;fill-opacity:1;fill-rule:nonzero;stroke:none"
         id="path3110" /><path
         d="m 2129,5400 c 0,-4 -5,-7 -7,-10 -11,-1 -20,3 -27,12 10,11 24,2 34,-2"
         style="fill:#ffffff;fill-opacity:1;fill-rule:nonzero;stroke:none"
         id="path3112" /><path
         d="m 1498,5110 c -6,-8 -6,-21 -3,-29 7,-17 27,-21 41,-17 5,2 10,7 17,5 33,-20 -18,-48 14,-72 7,-7 16,-8 27,-7 5,6 14,6 19,14 3,-6 6,-12 12,-17 -16,-15 -18,-33 -10,-53 l 17,-16 c -28,4 -55,1 -77,28 -39,56 -90,110 -93,178 15,-5 23,-4 36,-14"
         style="fill:#ffffff;fill-opacity:1;fill-rule:nonzero;stroke:none"
         id="path3114" /><path
         d="m 1481,4963 c 2,-32 18,-65 -5,-93 -16,-10 -26,-29 -43,-36 2,14 9,32 0,45 -16,21 -66,-4 -43,39 11,-11 10,7 16,9 14,8 14,29 10,43 -1,30 -48,9 -34,46 18,-2 27,10 34,24 -7,16 7,44 -19,48 2,3 9,0 12,-2 31,-38 44,-83 72,-123"
         style="fill:#ffffff;fill-opacity:1;fill-rule:nonzero;stroke:none"
         id="path3116" /><path
         d="m 1670,4742 c 8,-8 -4,-14 -7,-21 -7,-2 -9,6 -14,9 1,8 11,15 21,12"
         style="fill:#ffffff;fill-opacity:1;fill-rule:nonzero;stroke:none"
         id="path3118" /><path
         d="m 1649,4714 c -9,-8 -22,-17 -31,-8 l 16,22 15,-14"
         style="fill:#ffffff;fill-opacity:1;fill-rule:nonzero;stroke:none"
         id="path3120" /><path
         d="m 1579,4687 c -1,-6 -8,-9 -12,-14 -8,-1 -11,8 -17,12 9,4 21,12 29,2"
         style="fill:#ffffff;fill-opacity:1;fill-rule:nonzero;stroke:none"
         id="path3122" /><path
         d="m 1548,4668 c -6,-2 -14,-16 -24,-7 l 14,19 10,-12"
         style="fill:#ffffff;fill-opacity:1;fill-rule:nonzero;stroke:none"
         id="path3124" /><path
         d="m 1692,4622 c -1,-43 -50,-53 -82,-64 -9,-2 -21,0 -21,12 6,21 39,15 57,26 15,11 32,41 46,26"
         style="fill:#ffffff;fill-opacity:1;fill-rule:nonzero;stroke:none"
         id="path3126" /><path
         d="m 1802,4553 -9,-10 -3,3 -7,81 c 7,-22 22,-46 19,-74"
         style="fill:#ffffff;fill-opacity:1;fill-rule:nonzero;stroke:none"
         id="path3128" /><path
         d="m 1800,4507 c -7,-8 5,-18 -10,-21 -6,-3 -17,5 -24,2 4,-7 10,-13 8,-22 -5,-7 -12,-7 -20,-7 19,-31 -33,-14 -21,-45 -4,-8 -13,-10 -19,-5 l -10,9 c -10,-7 1,-23 -14,-28 -9,0 -9,8 -12,14 -8,-11 -23,-19 -36,-12 -11,11 0,26 0,38 14,11 32,-10 40,5 l 20,3 c -1,7 0,17 9,16 6,1 12,-5 17,0 -1,8 -9,16 0,22 5,-1 10,-9 14,-2 5,8 -13,16 3,19 15,-4 19,6 24,17 -3,7 8,16 12,24 21,7 14,-17 19,-27"
         style="fill:#ffffff;fill-opacity:1;fill-rule:nonzero;stroke:none"
         id="path3130" /><path
         d="m 1598,4445 c 12,3 24,-4 34,-12 2,-10 -2,-28 -14,-31 -15,5 -41,6 -41,26 4,-1 5,4 5,7 -1,3 1,8 -3,10 -11,3 -12,-9 -14,-15 -5,30 -25,53 -24,84 6,-28 33,-52 57,-69"
         style="fill:#ffffff;fill-opacity:1;fill-rule:nonzero;stroke:none"
         id="path3132" /><path
         d="m 1742,4450 0,-8 c -6,-3 -7,5 -7,10 3,0 6,1 7,-2"
         style="fill:#000000;fill-opacity:1;fill-rule:nonzero;stroke:none"
         id="path3134" /><path
         d="m 1613,4421 c 0,-3 0,-6 -3,-7 -6,-3 -7,6 -9,9 0,8 13,6 12,-2"
         style="fill:#000000;fill-opacity:1;fill-rule:nonzero;stroke:none"
         id="path3136" /><path
         d="m 1685,4409 7,0 0,9 -7,0 0,-9 z"
         style="fill:#000000;fill-opacity:1;fill-rule:nonzero;stroke:none"
         id="path3138" /><path
         d="m 1658,4406 -7,0 0,10 c 1,-2 7,-5 7,-10"
         style="fill:#000000;fill-opacity:1;fill-rule:nonzero;stroke:none"
         id="path3140" /><path
         d="m 1493,4205 c 23,-52 93,-88 77,-159 -2,-110 -8,-210 -60,-300 -32,-89 -67,-183 -63,-280 -17,-20 -6,-52 -21,-72 l 0,-24 c -5,3 -9,2 -12,-3 l 7,-38 -12,29 c -6,-17 -1,-35 5,-51 -12,19 -14,54 -36,65 l -3,-10 c -2,5 -6,9 -9,12 l -5,0 c 0,-16 8,-35 12,-52 -7,10 -11,24 -22,31 -5,-10 9,-17 5,-29 l -17,26 c -5,-12 7,-22 7,-36 -18,8 -45,45 -55,72 -75,113 -141,229 -199,348 -37,65 -58,135 -86,202 -3,9 -3,19 -10,26 0,12 -10,26 -14,39 -12,22 -5,45 7,67 17,22 37,40 62,53 133,14 264,50 372,125 30,3 55,-21 70,-41"
         style="fill:#ffffff;fill-opacity:1;fill-rule:nonzero;stroke:none"
         id="path3142" /><path
         d="m 1454,3322 c -13,11 -13,34 -9,48 -1,-18 10,-31 9,-48"
         style="fill:#ffffff;fill-opacity:1;fill-rule:nonzero;stroke:none"
         id="path3144" /><path
         d="m 1476,3319 c -14,12 -13,34 -19,51 l 19,-51"
         style="fill:#ffffff;fill-opacity:1;fill-rule:nonzero;stroke:none"
         id="path3146" /><path
         d="m 1354,3276 c -14,-11 -40,-9 -56,-2 11,-21 -16,-27 -28,-34 -17,6 -20,24 -15,41 7,12 24,6 34,5 l 7,-12 c 12,18 56,30 58,2"
         style="fill:#ffffff;fill-opacity:1;fill-rule:nonzero;stroke:none"
         id="path3148" /><path
         d="m 1349,3238 c -7,-2 -21,-2 -29,2 6,8 16,15 29,12 l 0,-14"
         style="fill:#ffffff;fill-opacity:1;fill-rule:nonzero;stroke:none"
         id="path3150" /><path
         d="m 1423,3242 c 11,-14 -8,-25 15,-31 l 2,17 c 3,-2 5,-7 10,-5 6,7 -5,25 9,24 14,-5 -8,-31 12,-17 4,-1 2,-8 7,-7 3,1 3,5 3,7 l -7,5 c 5,5 10,12 16,12 2,-2 -3,-15 8,-12 l 7,7 c 6,-1 4,-15 12,-7 0,8 -7,10 0,17 l 7,-14 c 5,0 9,14 14,2 -3,-1 -2,-5 -2,-7 22,-11 3,14 19,19 l 5,-5 c -14,-9 5,-18 2,-29 22,-9 5,15 20,15 l 4,5 c 6,-7 12,-12 22,-10 l 7,7 c 8,-6 3,-25 19,-19 0,-2 0,-6 3,-7 13,1 -6,11 7,14 l 14,-12 c -4,0 -9,2 -12,-2 0,-4 1,-8 5,-7 10,0 20,7 24,16 13,-2 6,-27 22,-21 l 0,7 5,-12 c 7,1 13,14 21,2 0,-4 1,-9 5,-12 10,6 17,15 24,22 l 0,-17 c 9,1 9,13 12,17 -1,-8 1,-16 7,-22 13,-6 13,9 19,15 0,-7 1,-22 8,-31 10,1 13,9 21,16 2,-9 3,-24 -5,-33 8,3 29,-8 32,9 -3,-16 13,-19 24,-24 -3,-3 -8,-5 -8,-9 21,4 20,-18 36,-24 -6,-22 29,-3 17,-27 5,-6 17,-6 22,0 3,-6 -7,-9 0,-14 5,4 15,11 19,2 -11,-12 4,-26 2,-40 29,-15 37,-51 53,-77 -12,-15 3,-29 5,-43 l 22,-24 -20,-24 c 12,-18 31,-42 22,-58 2,11 -2,25 -12,34 l -14,-3 -5,15 -7,-8 c -35,10 -23,49 -51,63 -4,33 -37,47 -53,72 -1,-1 -3,-3 -2,-5 -6,4 -2,17 -17,12 -8,-8 -11,4 -24,2 -30,27 -66,40 -103,51 -11,-17 -34,0 -50,0 -5,3 -8,9 -15,7 -17,-25 25,-10 34,-24 28,-8 50,-2 74,-14 -3,-5 -9,-8 -7,-15 l 5,-5 14,17 c 10,-3 15,-13 7,-21 1,-3 -1,-8 3,-10 19,-7 2,23 19,14 10,-2 -1,-17 12,-14 l 5,5 c 16,-9 47,-9 45,-36 13,-4 18,-24 29,-29 -8,-18 25,-22 12,-38 13,-5 13,-18 22,-29 1,-12 6,-22 14,-31 -3,-2 -2,-5 -2,-8 24,3 -1,-31 21,-16 l 3,-20 c 26,-7 19,15 41,17 l 0,3 c 16,-8 0,-25 12,-36 -8,-26 -10,-51 -5,-77 1,-18 -29,-4 -19,-27 4,-1 8,-6 12,-9 -9,-3 -2,-28 -15,-12 7,4 -2,8 -2,12 -13,-9 -7,-23 -5,-36 l 7,-5 c -5,5 -19,2 -24,-7 -5,-13 12,-22 -5,-27 -21,8 12,24 -9,27 -15,-14 -7,-25 -10,-41 6,-3 13,-3 17,-10 -16,0 -20,-7 -31,-16 -3,4 -3,11 -10,12 -8,-15 8,-21 5,-36 l 5,-8 c -19,3 -2,-38 -22,-14 3,1 3,5 3,7 -2,3 -5,3 -8,3 l -24,-39 c 3,-5 12,-5 5,-12 -1,-3 -5,-2 -7,-2 -5,3 2,17 -10,14 3,-23 -16,-9 -28,-17 -5,-12 7,-18 9,-28 -5,-5 -20,0 -21,-12 -7,3 -20,4 -15,16 -1,3 -5,3 -7,3 -10,-13 3,-27 -5,-36 0,2 1,17 -9,12 -8,-4 3,-7 2,-12 -10,0 -5,-12 -10,-15 -3,8 -10,4 -16,5 -13,-9 3,-18 2,-29 -4,5 -11,2 -17,3 l -7,-10 c -11,4 -8,25 -26,17 -2,-7 2,-23 -3,-29 -8,6 -11,21 -26,15 -9,-4 -4,-14 -3,-20 l -16,15 c -6,-6 -4,-26 -17,-15 -9,2 -1,15 -12,12 l -5,-31 c -4,7 -10,13 -19,12 l -7,-12 c -8,2 -12,15 -22,10 -9,-2 -1,-15 -12,-12 l -2,14 c -18,-2 -27,3 -44,5 -3,-1 -4,3 -7,5 -5,-4 0,-11 3,-12 -14,5 -15,-9 -24,-12 l 0,12 c -6,-12 -18,5 -24,-7 -9,0 -2,14 -12,14 -9,6 -14,-14 -20,0 -15,-6 -31,12 -45,2 -6,4 2,18 -10,15 -9,-9 9,-19 -7,-24 -7,9 -14,30 -31,29 -4,-2 -2,-9 -7,-8 -7,5 3,20 -10,17 l -2,-17 -10,15 c -11,1 -17,-11 -26,-12 l -3,19 c 4,-2 7,2 10,5 1,3 -3,5 -5,7 -8,-7 -26,-8 -19,-22 l -7,-2 c -1,11 -6,23 -20,22 0,4 10,7 3,12 -7,-5 -24,-14 -24,0 -3,6 12,12 0,16 -9,0 -12,-12 -19,-16 -5,7 -10,16 -20,9 -1,7 -5,25 -16,15 l -8,-8 c -6,5 3,20 -7,24 l -14,-4 c 0,12 -15,17 -15,28 -12,2 -13,16 -24,22 1,8 0,15 -7,19 5,1 9,6 7,12 -1,3 -4,3 -7,3 l -5,-10 c -24,8 19,22 -9,24 l -7,-7 c -11,3 -12,15 -24,14 7,22 4,32 9,55 -1,3 -5,3 -7,3 l -5,-5 c -5,7 1,23 -14,26 5,18 38,11 24,32 -10,-8 -17,-16 -34,-12 -7,8 13,11 7,21 l -16,10 c 5,20 5,39 24,50 2,7 -4,10 -8,15 -3,1 -4,-3 -7,-5 7,-7 -2,-18 -9,-17 -17,3 1,12 0,19 -8,19 -45,27 -12,48 -7,10 4,29 -10,34 2,4 6,18 -2,24 5,7 22,4 16,19 -3,9 -11,2 -16,2 l 12,22 c -29,4 4,24 -10,38 5,11 21,20 12,34 12,4 7,19 5,26 l 14,0 c -2,26 16,50 24,75 3,-4 6,-18 -2,-22 1,-3 5,-2 7,-2 5,6 10,16 5,24 0,9 9,21 9,33 9,-7 18,3 24,10 1,6 -4,10 -2,17 16,11 37,20 38,43 8,-1 15,0 20,7 -8,25 24,0 24,22 11,6 42,-6 43,19 4,8 -9,16 2,22 6,0 11,-3 15,-8 -8,-16 0,-29 2,-45 19,-19 2,-42 19,-65 3,-19 13,-34 22,-50 -4,-74 21,-136 43,-200 26,-13 32,-49 62,-45 15,-5 16,-22 17,-31 6,-2 11,5 12,9 -7,19 -27,32 -29,53 16,-28 35,-49 51,-77 6,4 25,15 33,0 6,-10 11,-23 3,-33 -3,-3 -7,-3 -10,-8 9,-4 23,6 22,17 l -3,24 c -25,40 -44,82 -62,125 l 2,2 c 21,-41 55,-81 75,-124 l 9,-8 c 5,8 8,14 17,15 12,0 18,-10 22,-19 0,-11 -9,-22 -19,-24 3,-9 12,-3 19,-5 18,43 -22,80 -41,117 -22,27 -35,56 -48,87 16,-9 20,-31 31,-46 l 55,-69 c 6,7 4,20 15,24 16,4 23,-11 26,-22 -1,-8 4,-19 -7,-24 -4,1 -10,-2 -12,2 -1,-1 -3,-2 -2,-4 6,-5 16,-2 24,-3 12,9 6,27 4,39 -33,53 -72,106 -98,160 46,-7 63,-84 122,-62 -10,4 -22,16 -26,26 l 5,0 c -32,58 -82,108 -113,168 -28,6 8,36 -24,24 -56,35 -74,104 -120,142 28,9 31,-47 55,-10"
         style="fill:#ffffff;fill-opacity:1;fill-rule:nonzero;stroke:none"
         id="path3152" /><path
         d="m 1258,3238 c -10,-11 -9,-39 -29,-32 -10,13 2,29 7,41 8,0 17,-1 22,-9"
         style="fill:#ffffff;fill-opacity:1;fill-rule:nonzero;stroke:none"
         id="path3154" /><path
         d="m 1306,3216 c -7,1 -15,-2 -20,2 -1,11 11,17 17,22 9,-7 3,-16 3,-24"
         style="fill:#ffffff;fill-opacity:1;fill-rule:nonzero;stroke:none"
         id="path3156" /><path
         d="m 1416,3226 c 1,-3 -1,-4 -2,-5 l -3,7 c 3,1 4,-1 5,-2"
         style="fill:#000000;fill-opacity:1;fill-rule:nonzero;stroke:none"
         id="path3158" /><path
         d="m 1601,3216 0,-5 c -8,-1 -12,8 -10,15 7,2 7,-6 10,-10"
         style="fill:#000000;fill-opacity:1;fill-rule:nonzero;stroke:none"
         id="path3160" /><path
         d="m 1517,3214 -5,0 7,9 c 7,-1 -2,-6 -2,-9"
         style="fill:#000000;fill-opacity:1;fill-rule:nonzero;stroke:none"
         id="path3162" /><path
         d="m 1546,3218 c -1,-3 1,-7 -3,-9 -4,0 -6,5 -9,7 -3,8 10,10 12,2"
         style="fill:#000000;fill-opacity:1;fill-rule:nonzero;stroke:none"
         id="path3164" /><path
         d="m 1478,3218 c 0,-3 2,-7 -2,-9 l -2,12 c 2,0 3,-1 4,-3"
         style="fill:#000000;fill-opacity:1;fill-rule:nonzero;stroke:none"
         id="path3166" /><path
         d="m 1397,3202 c -7,-1 -24,2 -24,-12 -1,-2 -3,-3 -5,-3 l 0,29 c 14,5 22,-8 29,-14"
         style="fill:#ffffff;fill-opacity:1;fill-rule:nonzero;stroke:none"
         id="path3168" /><path
         d="m 1294,3206 c 1,-7 -7,-9 -10,-14 -5,-2 -9,2 -7,7 -3,13 10,12 17,7"
         style="fill:#ffffff;fill-opacity:1;fill-rule:nonzero;stroke:none"
         id="path3170" /><path
         d="m 1361,3199 c -6,-3 2,-14 -7,-14 -10,9 -22,-10 -32,7 13,2 34,37 39,7"
         style="fill:#ffffff;fill-opacity:1;fill-rule:nonzero;stroke:none"
         id="path3172" /><path
         d="m 1675,3204 5,0 0,5 -5,0 0,-5 z"
         style="fill:#000000;fill-opacity:1;fill-rule:nonzero;stroke:none"
         id="path3174" /><path
         d="m 1270,3206 c 0,-4 -1,-9 -5,-12 -6,5 -1,12 5,12"
         style="fill:#ffffff;fill-opacity:1;fill-rule:nonzero;stroke:none"
         id="path3176" /><path
         d="m 1498,3204 c -5,-2 -12,-6 -20,-5 3,13 14,7 20,5"
         style="fill:#000000;fill-opacity:1;fill-rule:nonzero;stroke:none"
         id="path3178" /><path
         d="m 1570,3202 4,0 0,4 -4,0 0,-4 z"
         style="fill:#000000;fill-opacity:1;fill-rule:nonzero;stroke:none"
         id="path3180" /><path
         d="m 1630,3199 c 0,-2 -2,-3 -3,-5 l -5,0 0,5 8,0"
         style="fill:#000000;fill-opacity:1;fill-rule:nonzero;stroke:none"
         id="path3182" /><path
         d="m 1606,3192 -15,2 c 4,3 10,3 15,3 l 0,-5"
         style="fill:#000000;fill-opacity:1;fill-rule:nonzero;stroke:none"
         id="path3184" /><path
         d="m 1500,3190 5,0 0,4 -5,0 0,-4 z"
         style="fill:#000000;fill-opacity:1;fill-rule:nonzero;stroke:none"
         id="path3186" /><path
         d="m 1524,3168 -5,0 7,26 c -3,-4 9,-19 -2,-26"
         style="fill:#000000;fill-opacity:1;fill-rule:nonzero;stroke:none"
         id="path3188" /><path
         d="m 1673,3194 c -4,0 -8,-9 -15,-7 -1,8 10,4 15,7"
         style="fill:#000000;fill-opacity:1;fill-rule:nonzero;stroke:none"
         id="path3190" /><path
         d="m 1313,3173 c -4,-9 -15,-9 -22,-5 l 19,17 c 5,-3 6,-8 3,-12"
         style="fill:#ffffff;fill-opacity:1;fill-rule:nonzero;stroke:none"
         id="path3192" /><path
         d="m 1574,3180 0,-5 -16,3 0,7 c 7,2 9,-9 16,-5"
         style="fill:#000000;fill-opacity:1;fill-rule:nonzero;stroke:none"
         id="path3194" /><path
         d="m 1620,3180 5,0 0,5 -5,0 0,-5 z"
         style="fill:#000000;fill-opacity:1;fill-rule:nonzero;stroke:none"
         id="path3196" /><path
         d="m 1642,3178 4,0 0,7 -4,0 0,-7 z"
         style="fill:#000000;fill-opacity:1;fill-rule:nonzero;stroke:none"
         id="path3198" /><path
         d="m 1762,3178 -3,7 3,0 0,-7"
         style="fill:#000000;fill-opacity:1;fill-rule:nonzero;stroke:none"
         id="path3200" /><path
         d="m 1608,3178 c 1,-3 -1,-4 -2,-5 l -3,0 0,7 c 3,1 4,-1 5,-2"
         style="fill:#000000;fill-opacity:1;fill-rule:nonzero;stroke:none"
         id="path3202" /><path
         d="m 1548,3178 c -2,-5 2,-7 5,-10 1,1 2,3 5,2 l 0,-7 c -5,-2 -11,12 -15,0 l -2,15 7,0"
         style="fill:#000000;fill-opacity:1;fill-rule:nonzero;stroke:none"
         id="path3204" /><path
         d="m 1735,3168 5,0 0,10 -5,0 0,-10 z"
         style="fill:#000000;fill-opacity:1;fill-rule:nonzero;stroke:none"
         id="path3206" /><path
         d="m 1699,3163 5,0 0,5 -5,0 0,-5 z"
         style="fill:#000000;fill-opacity:1;fill-rule:nonzero;stroke:none"
         id="path3208" /><path
         d="m 1882,3168 -3,-10 3,10"
         style="fill:#ffffff;fill-opacity:1;fill-rule:nonzero;stroke:none"
         id="path3210" /><path
         d="m 1574,3158 -7,5 7,0 0,-5"
         style="fill:#000000;fill-opacity:1;fill-rule:nonzero;stroke:none"
         id="path3212" /><path
         d="m 1596,3156 5,0 0,5 -5,0 0,-5 z"
         style="fill:#000000;fill-opacity:1;fill-rule:nonzero;stroke:none"
         id="path3214" /><path
         d="m 1632,3161 c -1,-5 2,-11 -2,-15 l -3,15 5,0"
         style="fill:#000000;fill-opacity:1;fill-rule:nonzero;stroke:none"
         id="path3216" /><path
         d="m 1802,3161 8,-10 -8,10"
         style="fill:#000000;fill-opacity:1;fill-rule:nonzero;stroke:none"
         id="path3218" /><path
         d="m 1289,3154 c 5,-4 -5,-8 -5,-12 l -2,0 0,12 7,0"
         style="fill:#ffffff;fill-opacity:1;fill-rule:nonzero;stroke:none"
         id="path3220" /><path
         d="m 1538,3154 c 0,-3 1,-6 -2,-8 l -5,0 c -2,5 3,9 7,8"
         style="fill:#000000;fill-opacity:1;fill-rule:nonzero;stroke:none"
         id="path3222" /><path
         d="m 1654,3144 0,-7 -5,0 0,9 c 2,1 3,-1 5,-2"
         style="fill:#000000;fill-opacity:1;fill-rule:nonzero;stroke:none"
         id="path3224" /><path
         d="m 1584,3139 5,0 0,5 -5,0 0,-5 z"
         style="fill:#000000;fill-opacity:1;fill-rule:nonzero;stroke:none"
         id="path3226" /><path
         d="m 1222,3139 0,-2 -8,0 0,5 c 3,0 6,0 8,-3"
         style="fill:#000000;fill-opacity:1;fill-rule:nonzero;stroke:none"
         id="path3228" /><path
         d="m 1692,3142 c 1,-4 -1,-8 -5,-8 l -7,0 c 2,2 6,10 12,8"
         style="fill:#000000;fill-opacity:1;fill-rule:nonzero;stroke:none"
         id="path3230" /><path
         d="m 1800,3127 -2,15 2,-8 0,-7"
         style="fill:#000000;fill-opacity:1;fill-rule:nonzero;stroke:none"
         id="path3232" /><path
         d="m 1848,3134 c 0,-2 1,-6 -2,-7 l -8,0 0,15 c 7,3 7,-5 10,-8"
         style="fill:#000000;fill-opacity:1;fill-rule:nonzero;stroke:none"
         id="path3234" /><path
         d="m 1622,3134 -7,5 7,0 0,-5"
         style="fill:#000000;fill-opacity:1;fill-rule:nonzero;stroke:none"
         id="path3236" /><path
         d="m 1817,3134 7,0 0,5 -7,0 0,-5 z"
         style="fill:#000000;fill-opacity:1;fill-rule:nonzero;stroke:none"
         id="path3238" /><path
         d="m 1214,3110 c 0,-4 2,-9 -2,-12 -8,8 -14,21 -14,34 6,-5 19,-12 16,-22"
         style="fill:#000000;fill-opacity:1;fill-rule:nonzero;stroke:none"
         id="path3240" /><path
         d="m 1229,3130 c -1,-6 2,-13 -3,-17 l -2,17 5,0"
         style="fill:#000000;fill-opacity:1;fill-rule:nonzero;stroke:none"
         id="path3242" /><path
         d="m 1238,3122 5,0 0,5 -5,0 0,-5 z"
         style="fill:#000000;fill-opacity:1;fill-rule:nonzero;stroke:none"
         id="path3244" /><path
         d="m 1742,3125 0,-5 -4,7 c 2,1 3,-1 4,-2"
         style="fill:#000000;fill-opacity:1;fill-rule:nonzero;stroke:none"
         id="path3246" /><path
         d="m 1858,3127 c 0,-2 -2,-3 -3,-5 l -5,0 c 0,5 4,6 8,5"
         style="fill:#000000;fill-opacity:1;fill-rule:nonzero;stroke:none"
         id="path3248" /><path
         d="m 1805,3118 0,-5 c -5,-2 -9,2 -7,7 2,0 6,1 7,-2"
         style="fill:#000000;fill-opacity:1;fill-rule:nonzero;stroke:none"
         id="path3250" /><path
         d="m 1771,3113 5,0 0,5 -5,0 0,-5 z"
         style="fill:#000000;fill-opacity:1;fill-rule:nonzero;stroke:none"
         id="path3252" /><path
         d="m 1843,3108 7,0 0,7 -7,0 0,-7 z"
         style="fill:#000000;fill-opacity:1;fill-rule:nonzero;stroke:none"
         id="path3254" /><path
         d="m 1872,3106 c -5,-2 -9,2 -7,7 l 7,0 0,-7"
         style="fill:#000000;fill-opacity:1;fill-rule:nonzero;stroke:none"
         id="path3256" /><path
         d="m 1183,3106 -7,-15 c 5,7 -2,12 -2,19 4,2 6,-2 9,-4"
         style="fill:#000000;fill-opacity:1;fill-rule:nonzero;stroke:none"
         id="path3258" /><path
         d="m 1798,3101 -10,0 0,5 c 4,1 7,-3 10,-5"
         style="fill:#000000;fill-opacity:1;fill-rule:nonzero;stroke:none"
         id="path3260" /><path
         d="m 1615,3067 c -34,17 -71,25 -108,36 40,-1 79,-13 108,-36"
         style="fill:#000000;fill-opacity:1;fill-rule:nonzero;stroke:none"
         id="path3262" /><path
         d="m 1769,3096 5,0 0,5 -5,0 0,-5 z"
         style="fill:#000000;fill-opacity:1;fill-rule:nonzero;stroke:none"
         id="path3264" /><path
         d="m 1817,3091 0,-5 c -5,-1 -9,3 -7,8 2,0 6,0 7,-3"
         style="fill:#000000;fill-opacity:1;fill-rule:nonzero;stroke:none"
         id="path3266" /><path
         d="m 1874,3094 8,0 -8,0"
         style="fill:#000000;fill-opacity:1;fill-rule:nonzero;stroke:none"
         id="path3268" /><path
         d="m 1906,3074 c -1,-3 1,-7 -3,-9 l -9,12 c -5,-12 -10,2 -17,-3 l 0,5 c 11,-4 26,19 29,-5"
         style="fill:#000000;fill-opacity:1;fill-rule:nonzero;stroke:none"
         id="path3270" /><path
         d="m 1183,3084 c 6,-14 -11,-3 -14,-10 -1,8 8,12 14,10"
         style="fill:#000000;fill-opacity:1;fill-rule:nonzero;stroke:none"
         id="path3272" /><path
         d="m 1867,3082 c 1,-4 -3,-5 -5,-8 l -4,0 c -3,7 5,8 9,8"
         style="fill:#000000;fill-opacity:1;fill-rule:nonzero;stroke:none"
         id="path3274" /><path
         d="m 1843,3074 0,-4 -5,7 c 3,0 4,-1 5,-3"
         style="fill:#000000;fill-opacity:1;fill-rule:nonzero;stroke:none"
         id="path3276" /><path
         d="m 1157,3053 c -3,0 -6,-1 -7,2 -5,10 6,7 9,15 l -2,-17"
         style="fill:#000000;fill-opacity:1;fill-rule:nonzero;stroke:none"
         id="path3278" /><path
         d="m 1930,3058 -20,4 20,0 0,-4"
         style="fill:#000000;fill-opacity:1;fill-rule:nonzero;stroke:none"
         id="path3280" /><path
         d="m 1661,3024 c -13,-26 11,-36 26,-50 16,2 21,-18 36,-24 5,-11 20,-17 15,-32 -12,0 -16,24 -32,12 9,11 -5,17 -12,22 -12,2 1,-8 -7,-10 -14,2 -12,17 -21,24 l -3,-2 c -8,10 -12,28 -29,31 2,5 12,14 5,22 1,2 -2,6 -5,5 l -7,0 0,4 c 28,1 -2,20 7,34 21,-2 19,-22 27,-36"
         style="fill:#000000;fill-opacity:1;fill-rule:nonzero;stroke:none"
         id="path3282" /><path
         d="m 1901,3058 0,-10 -15,12 c 5,-1 11,2 15,-2"
         style="fill:#000000;fill-opacity:1;fill-rule:nonzero;stroke:none"
         id="path3284" /><path
         d="m 1867,3058 c 0,-3 -4,-5 -7,-5 -5,2 4,6 7,5"
         style="fill:#000000;fill-opacity:1;fill-rule:nonzero;stroke:none"
         id="path3286" /><path
         d="m 1265,3041 c 4,-15 -13,-19 -22,-24 -9,1 -18,8 -26,-3 l -3,22 c 14,5 18,-14 32,-7 6,3 11,12 19,12"
         style="fill:#000000;fill-opacity:1;fill-rule:nonzero;stroke:none"
         id="path3288" /><path
         d="m 1918,3029 c -3,0 -6,-1 -8,2 l 5,10 c 4,-1 2,-8 3,-12"
         style="fill:#000000;fill-opacity:1;fill-rule:nonzero;stroke:none"
         id="path3290" /><path
         d="m 1596,3034 c 0,-3 1,-6 -2,-8 l -5,0 0,8 7,0"
         style="fill:#000000;fill-opacity:1;fill-rule:nonzero;stroke:none"
         id="path3292" /><path
         d="m 1130,3026 5,0 0,5 -5,0 0,-5 z"
         style="fill:#000000;fill-opacity:1;fill-rule:nonzero;stroke:none"
         id="path3294" /><path
         d="m 1106,3019 8,0 -8,0"
         style="fill:#000000;fill-opacity:1;fill-rule:nonzero;stroke:none"
         id="path3296" /><path
         d="m 1934,3007 c -6,-3 -7,5 -7,10 9,3 3,-7 7,-10"
         style="fill:#000000;fill-opacity:1;fill-rule:nonzero;stroke:none"
         id="path3298" /><path
         d="m 1138,3005 c 2,-7 -8,-6 -12,-7 l -5,0 0,9 17,-2"
         style="fill:#000000;fill-opacity:1;fill-rule:nonzero;stroke:none"
         id="path3300" /><path
         d="m 1265,3007 c 2,-10 -10,-9 -17,-9 -4,0 -10,-2 -12,2 l 0,5 c 10,-7 19,2 29,2"
         style="fill:#000000;fill-opacity:1;fill-rule:nonzero;stroke:none"
         id="path3302" /><path
         d="m 1963,2986 0,-5 c -5,2 -20,16 -21,21 13,3 13,-13 21,-16"
         style="fill:#000000;fill-opacity:1;fill-rule:nonzero;stroke:none"
         id="path3304" /><path
         d="m 1805,2966 -7,-7 c -11,9 -47,19 -56,39 23,-7 41,-25 63,-32"
         style="fill:#000000;fill-opacity:1;fill-rule:nonzero;stroke:none"
         id="path3306" /><path
         d="m 1246,2974 c 18,-56 -49,-99 2,-147 l -22,7 c 3,15 -4,26 -12,34 -9,-4 -1,-13 0,-19 2,-1 3,-3 5,-3 3,-6 -6,-7 -9,-9 l -5,0 c 8,23 -26,50 -5,67 -23,25 32,17 7,43 16,12 -5,46 27,43 l 12,-16"
         style="fill:#000000;fill-opacity:1;fill-rule:nonzero;stroke:none"
         id="path3308" /><path
         d="m 1975,2981 5,0 0,7 -5,0 0,-7 z"
         style="fill:#000000;fill-opacity:1;fill-rule:nonzero;stroke:none"
         id="path3310" /><path
         d="m 1231,2983 c -5,-11 1,-26 -2,-36 l -3,0 -2,36 7,0"
         style="fill:#ffffff;fill-opacity:1;fill-rule:nonzero;stroke:none"
         id="path3312" /><path
         d="m 1082,2978 c 2,-7 -2,-7 -7,-9 -2,5 4,9 7,9"
         style="fill:#000000;fill-opacity:1;fill-rule:nonzero;stroke:none"
         id="path3314" /><path
         d="m 1109,2976 c 2,-8 -3,-13 -5,-19 l -5,0 3,19 7,0"
         style="fill:#000000;fill-opacity:1;fill-rule:nonzero;stroke:none"
         id="path3316" /><path
         d="m 1128,2964 -5,7 5,0 0,-7"
         style="fill:#000000;fill-opacity:1;fill-rule:nonzero;stroke:none"
         id="path3318" /><path
         d="m 1961,2964 5,0 0,5 -5,0 0,-5 z"
         style="fill:#000000;fill-opacity:1;fill-rule:nonzero;stroke:none"
         id="path3320" /><path
         d="m 1985,2966 c 0,-5 -1,-11 5,-14 l 2,0 0,-5 -10,0 -2,19 5,0"
         style="fill:#000000;fill-opacity:1;fill-rule:nonzero;stroke:none"
         id="path3322" /><path
         d="m 1853,2954 9,0 0,5 -9,0 0,-5 z"
         style="fill:#000000;fill-opacity:1;fill-rule:nonzero;stroke:none"
         id="path3324" /><path
         d="m 1082,2950 8,0 0,4 -8,0 0,-4 z"
         style="fill:#000000;fill-opacity:1;fill-rule:nonzero;stroke:none"
         id="path3326" /><path
         d="m 1838,2952 c -4,-33 -42,-50 -67,-67 -3,-31 19,-76 -9,-103 -5,-18 -23,-25 -39,-34 -44,-68 -61,-143 -96,-214 -12,-41 -31,-79 -57,-115 -15,-14 -39,-14 -56,-17 -5,-1 -8,11 -14,3 -17,30 -13,76 -38,103 13,79 -24,156 -89,199 -6,19 -29,30 -17,51 l 5,0 c -1,-12 0,-15 7,-24 8,9 14,-6 17,-10 -1,-23 27,-32 38,-46 7,-16 24,-28 34,-43 l 7,5 c -8,-17 13,-36 19,-50 18,7 -15,24 10,21 l 5,-65 c -3,0 -6,0 -8,3 -2,6 12,12 0,17 -12,-8 -6,-21 -4,-34 3,3 9,2 14,2 3,-1 2,-4 2,-7 -50,0 9,-45 -2,-74 1,-12 10,-21 19,-29 13,5 31,5 34,22 -6,10 -15,0 -22,0 -9,14 6,16 15,21 6,12 9,27 14,36 -2,7 -7,6 -5,15 3,0 4,-2 5,-3 14,6 -1,14 7,22 15,14 -2,47 24,53 3,-17 -15,-33 -9,-51 -18,-12 -4,-41 -22,-55 l -2,-17 c -5,0 -7,-5 -10,-7 0,-4 5,-7 7,-10 40,39 39,100 70,142 l 0,24 c 12,-10 17,7 21,14 l -2,8 c 17,5 26,37 34,57 -4,4 -10,2 -15,3 -6,25 8,54 17,79 8,4 7,17 19,12 4,-9 -6,-12 -9,-17 3,-1 2,-5 2,-7 -6,2 -11,-6 -12,-10 15,-10 -7,-11 -5,-21 l -5,-24 c 3,1 18,4 20,14 l -3,7 c 16,24 46,40 58,67 12,12 20,29 17,48 -33,18 13,45 -12,63 15,-3 19,11 31,12 18,8 24,44 48,26 3,3 5,7 9,5"
         style="fill:#000000;fill-opacity:1;fill-rule:nonzero;stroke:none"
         id="path3328" /><path
         d="m 1975,2940 0,-2 -7,0 c 3,2 4,7 7,2"
         style="fill:#000000;fill-opacity:1;fill-rule:nonzero;stroke:none"
         id="path3330" /><path
         d="m 1075,2930 c -2,0 -6,0 -7,3 0,3 4,4 7,5 l 0,-8"
         style="fill:#000000;fill-opacity:1;fill-rule:nonzero;stroke:none"
         id="path3332" /><path
         d="m 953,2926 c -4,-3 -10,-3 -15,-3 2,4 11,7 15,3"
         style="fill:#ffffff;fill-opacity:1;fill-rule:nonzero;stroke:none"
         id="path3334" /><path
         d="m 1087,2899 -5,0 0,29 8,0 -3,-29"
         style="fill:#000000;fill-opacity:1;fill-rule:nonzero;stroke:none"
         id="path3336" /><path
         d="m 1258,2916 2,12 5,0 -7,-12"
         style="fill:#000000;fill-opacity:1;fill-rule:nonzero;stroke:none"
         id="path3338" /><path
         d="m 1070,2914 -12,4 c -1,5 3,9 8,8 4,-3 1,-9 4,-12"
         style="fill:#000000;fill-opacity:1;fill-rule:nonzero;stroke:none"
         id="path3340" /><path
         d="m 1999,2926 c 1,-6 -8,-9 -14,-10 -3,10 9,7 14,10"
         style="fill:#000000;fill-opacity:1;fill-rule:nonzero;stroke:none"
         id="path3342" /><path
         d="m 1063,2892 7,0 0,7 -7,0 0,-7 z"
         style="fill:#000000;fill-opacity:1;fill-rule:nonzero;stroke:none"
         id="path3344" /><path
         d="m 2009,2899 c -1,-5 -7,-8 -10,-12 -3,1 2,15 10,12"
         style="fill:#000000;fill-opacity:1;fill-rule:nonzero;stroke:none"
         id="path3346" /><path
         d="m 1711,2894 c -1,-6 -8,-8 -14,-7 0,9 7,7 14,7"
         style="fill:#000000;fill-opacity:1;fill-rule:nonzero;stroke:none"
         id="path3348" /><path
         d="m 1721,2890 5,0 0,4 -5,0 0,-4 z"
         style="fill:#000000;fill-opacity:1;fill-rule:nonzero;stroke:none"
         id="path3350" /><path
         d="m 1054,2892 c 2,-8 -6,-16 -10,-17 -2,8 5,16 10,17"
         style="fill:#000000;fill-opacity:1;fill-rule:nonzero;stroke:none"
         id="path3352" /><path
         d="m 941,2882 c -1,-14 -33,3 -36,8 l 36,-8"
         style="fill:#ffffff;fill-opacity:1;fill-rule:nonzero;stroke:none"
         id="path3354" /><path
         d="m 1075,2882 c 1,-2 -1,-3 -2,-4 l -5,0 0,7 c 2,0 6,0 7,-3"
         style="fill:#000000;fill-opacity:1;fill-rule:nonzero;stroke:none"
         id="path3356" /><path
         d="m 2021,2880 c 1,-2 -3,-6 -5,-5 l -7,0 0,7 c 4,0 9,2 12,-2"
         style="fill:#000000;fill-opacity:1;fill-rule:nonzero;stroke:none"
         id="path3358" /><path
         d="m 950,2851 c -18,-27 -31,9 -50,15 l 50,-15"
         style="fill:#ffffff;fill-opacity:1;fill-rule:nonzero;stroke:none"
         id="path3360" /><path
         d="m 1061,2858 0,-4 -7,0 0,7 c 2,0 6,0 7,-3"
         style="fill:#000000;fill-opacity:1;fill-rule:nonzero;stroke:none"
         id="path3362" /><path
         d="m 1090,2849 -10,0 c -2,6 3,12 10,9 l 0,-9"
         style="fill:#000000;fill-opacity:1;fill-rule:nonzero;stroke:none"
         id="path3364" /><path
         d="m 1054,2834 7,0 0,8 -7,0 0,-8 z"
         style="fill:#000000;fill-opacity:1;fill-rule:nonzero;stroke:none"
         id="path3366" /><path
         d="m 1082,2830 c -2,-3 0,-11 -7,-8 l 0,8 7,0"
         style="fill:#000000;fill-opacity:1;fill-rule:nonzero;stroke:none"
         id="path3368" /><path
         d="m 1212,2825 0,-7 -5,0 0,12 c 3,1 6,-3 5,-5"
         style="fill:#000000;fill-opacity:1;fill-rule:nonzero;stroke:none"
         id="path3370" /><path
         d="m 2136,2827 -12,0 2,3 c 2,-5 7,-2 10,-3"
         style="fill:#ffffff;fill-opacity:1;fill-rule:nonzero;stroke:none"
         id="path3372" /><path
         d="m 1344,2762 c -30,-11 -64,-1 -86,20 -11,13 -21,19 -15,38 14,-46 70,-44 101,-58"
         style="fill:#000000;fill-opacity:1;fill-rule:nonzero;stroke:none"
         id="path3374" /><path
         d="m 1109,2808 5,0 0,5 -5,0 0,-5 z"
         style="fill:#000000;fill-opacity:1;fill-rule:nonzero;stroke:none"
         id="path3376" /><path
         d="m 1061,2789 c -3,-6 -12,-7 -19,-7 -8,16 14,16 16,28 11,-3 2,-14 3,-21"
         style="fill:#000000;fill-opacity:1;fill-rule:nonzero;stroke:none"
         id="path3378" /><path
         d="m 1711,2796 7,0 0,5 -7,0 0,-5 z"
         style="fill:#000000;fill-opacity:1;fill-rule:nonzero;stroke:none"
         id="path3380" /><path
         d="m 1082,2791 0,-5 -7,0 0,8 c 3,0 6,0 7,-3"
         style="fill:#000000;fill-opacity:1;fill-rule:nonzero;stroke:none"
         id="path3382" /><path
         d="m 1798,2765 -5,0 c -1,3 0,8 5,7 l 0,-7"
         style="fill:#000000;fill-opacity:1;fill-rule:nonzero;stroke:none"
         id="path3384" /><path
         d="m 1046,2765 5,0 0,5 -5,0 0,-5 z"
         style="fill:#000000;fill-opacity:1;fill-rule:nonzero;stroke:none"
         id="path3386" /><path
         d="m 1085,2755 0,-7 -12,0 c -3,8 6,18 12,7"
         style="fill:#000000;fill-opacity:1;fill-rule:nonzero;stroke:none"
         id="path3388" /><path
         d="m 1102,2750 0,-7 -10,0 c -4,8 7,18 10,7"
         style="fill:#000000;fill-opacity:1;fill-rule:nonzero;stroke:none"
         id="path3390" /><path
         d="m 2033,2750 0,-4 c -5,-1 -13,0 -10,7 4,0 6,-4 10,-3"
         style="fill:#000000;fill-opacity:1;fill-rule:nonzero;stroke:none"
         id="path3392" /><path
         d="m 2038,2731 -12,0 c -3,9 7,7 12,7 l 0,-7"
         style="fill:#000000;fill-opacity:1;fill-rule:nonzero;stroke:none"
         id="path3394" /><path
         d="m 2040,2714 c -7,-4 -14,9 -19,-4 l -5,14 c 11,3 21,-5 24,-10"
         style="fill:#000000;fill-opacity:1;fill-rule:nonzero;stroke:none"
         id="path3396" /><path
         d="m 1044,2717 7,0 0,5 -7,0 0,-5 z"
         style="fill:#000000;fill-opacity:1;fill-rule:nonzero;stroke:none"
         id="path3398" /><path
         d="m 1061,2717 7,0 0,5 -7,0 0,-5 z"
         style="fill:#000000;fill-opacity:1;fill-rule:nonzero;stroke:none"
         id="path3400" /><path
         d="m 946,2719 9,0 -9,0"
         style="fill:#ffffff;fill-opacity:1;fill-rule:nonzero;stroke:none"
         id="path3402" /><path
         d="m 2033,2705 c -1,-3 2,-8 -3,-10 l -4,0 0,10 7,0"
         style="fill:#000000;fill-opacity:1;fill-rule:nonzero;stroke:none"
         id="path3404" /><path
         d="m 924,2695 29,-2 -29,2"
         style="fill:#ffffff;fill-opacity:1;fill-rule:nonzero;stroke:none"
         id="path3406" /><path
         d="m 1094,2695 c 0,-2 1,-6 -2,-7 l -5,7 7,0"
         style="fill:#000000;fill-opacity:1;fill-rule:nonzero;stroke:none"
         id="path3408" /><path
         d="m 1138,2678 4,0 0,8 -4,0 0,-8 z"
         style="fill:#000000;fill-opacity:1;fill-rule:nonzero;stroke:none"
         id="path3410" /><path
         d="m 2035,2669 c 1,-3 -1,-4 -2,-5 -7,-3 -8,5 -7,10 4,1 6,-3 9,-5"
         style="fill:#000000;fill-opacity:1;fill-rule:nonzero;stroke:none"
         id="path3412" /><path
         d="m 1068,2662 5,0 0,4 -5,0 0,-4 z"
         style="fill:#000000;fill-opacity:1;fill-rule:nonzero;stroke:none"
         id="path3414" /><path
         d="m 1778,2647 c -9,-44 -4,-107 -52,-132 -20,-9 -21,15 -27,24 7,-1 12,12 22,7 2,-7 -7,-8 -7,-14 7,-6 20,5 19,12 l 2,-2 c 18,24 34,61 17,93 l -31,-33 c 6,-3 5,-9 5,-15 -14,-10 -24,-12 -20,-31 -5,12 -10,24 -7,41 27,5 34,44 60,60 l -2,9 c 14,5 17,-12 21,-19"
         style="fill:#000000;fill-opacity:1;fill-rule:nonzero;stroke:none"
         id="path3416" /><path
         d="m 1092,2645 0,-3 -7,0 0,10 c 6,3 5,-4 7,-7"
         style="fill:#000000;fill-opacity:1;fill-rule:nonzero;stroke:none"
         id="path3418" /><path
         d="m 2016,2642 c -4,7 -9,-4 -10,0 5,0 8,7 10,8 l 0,-8"
         style="fill:#000000;fill-opacity:1;fill-rule:nonzero;stroke:none"
         id="path3420" /><path
         d="m 1070,2642 5,0 0,5 -5,0 0,-5 z"
         style="fill:#000000;fill-opacity:1;fill-rule:nonzero;stroke:none"
         id="path3422" /><path
         d="m 1140,2640 0,-7 c -3,0 -8,-2 -10,2 -2,6 7,10 10,5"
         style="fill:#000000;fill-opacity:1;fill-rule:nonzero;stroke:none"
         id="path3424" /><path
         d="m 1078,2618 4,0 0,8 -4,0 0,-8 z"
         style="fill:#000000;fill-opacity:1;fill-rule:nonzero;stroke:none"
         id="path3426" /><path
         d="m 1519,2606 -5,0 c 0,4 1,8 5,8 l 0,-8"
         style="fill:#000000;fill-opacity:1;fill-rule:nonzero;stroke:none"
         id="path3428" /><path
         d="m 1894,2594 c -2,-16 5,-39 -12,-48 -16,18 4,32 -22,39 8,8 -11,17 2,24 11,-5 25,-6 32,-15"
         style="fill:#000000;fill-opacity:1;fill-rule:nonzero;stroke:none"
         id="path3430" /><path
         d="m 1594,2604 0,-7 -5,0 0,9 c 2,1 3,-1 5,-2"
         style="fill:#000000;fill-opacity:1;fill-rule:nonzero;stroke:none"
         id="path3432" /><path
         d="m 1999,2602 c -2,-5 -8,-2 -12,-3 l 0,5 c 4,-1 10,2 12,-2"
         style="fill:#000000;fill-opacity:1;fill-rule:nonzero;stroke:none"
         id="path3434" /><path
         d="m 1541,2585 7,0 0,5 -7,0 0,-5 z"
         style="fill:#000000;fill-opacity:1;fill-rule:nonzero;stroke:none"
         id="path3436" /><path
         d="m 1142,2582 c 0,-3 2,-7 -2,-9 l -5,0 0,12 c 3,0 6,0 7,-3"
         style="fill:#000000;fill-opacity:1;fill-rule:nonzero;stroke:none"
         id="path3438" /><path
         d="m 1488,2570 -2,15 2,-5 0,-10"
         style="fill:#ffffff;fill-opacity:1;fill-rule:nonzero;stroke:none"
         id="path3440" /><path
         d="m 1094,2573 -2,7 2,0 0,-7"
         style="fill:#000000;fill-opacity:1;fill-rule:nonzero;stroke:none"
         id="path3442" /><path
         d="m 1226,2573 -4,7 4,0 0,-7"
         style="fill:#000000;fill-opacity:1;fill-rule:nonzero;stroke:none"
         id="path3444" /><path
         d="m 1118,2573 c 1,-3 -1,-4 -2,-5 l -7,0 0,7 c 3,0 8,2 9,-2"
         style="fill:#000000;fill-opacity:1;fill-rule:nonzero;stroke:none"
         id="path3446" /><path
         d="m 1718,2558 5,0 0,10 -5,0 0,-10 z"
         style="fill:#000000;fill-opacity:1;fill-rule:nonzero;stroke:none"
         id="path3448" /><path
         d="m 1546,2549 4,0 0,5 -4,0 0,-5 z"
         style="fill:#000000;fill-opacity:1;fill-rule:nonzero;stroke:none"
         id="path3450" /><path
         d="m 1145,2549 0,-5 -5,0 0,7 c 2,1 4,-1 5,-2"
         style="fill:#000000;fill-opacity:1;fill-rule:nonzero;stroke:none"
         id="path3452" /><path
         d="m 1178,2549 0,-5 -4,0 0,7 c 2,1 3,-1 4,-2"
         style="fill:#000000;fill-opacity:1;fill-rule:nonzero;stroke:none"
         id="path3454" /><path
         d="m 1111,2544 0,-2 -7,4 c 2,0 6,1 7,-2"
         style="fill:#000000;fill-opacity:1;fill-rule:nonzero;stroke:none"
         id="path3456" /><path
         d="m 1930,2539 c -27,-17 -39,-44 -70,-43 4,10 15,21 12,31 l 17,12 c -1,-4 3,-5 7,-5 13,-2 22,26 34,5"
         style="fill:#000000;fill-opacity:1;fill-rule:nonzero;stroke:none"
         id="path3458" /><path
         d="m 1111,2520 c 0,-2 1,-6 -2,-7 l -5,7 7,0"
         style="fill:#000000;fill-opacity:1;fill-rule:nonzero;stroke:none"
         id="path3460" /><path
         d="m 1219,2508 0,-5 -7,0 0,7 c 2,0 6,1 7,-2"
         style="fill:#000000;fill-opacity:1;fill-rule:nonzero;stroke:none"
         id="path3462" /><path
         d="m 1130,2498 5,0 0,5 -5,0 0,-5 z"
         style="fill:#000000;fill-opacity:1;fill-rule:nonzero;stroke:none"
         id="path3464" /><path
         d="m 1166,2496 c 1,-2 -1,-4 -2,-5 l -5,7 c 3,0 6,1 7,-2"
         style="fill:#000000;fill-opacity:1;fill-rule:nonzero;stroke:none"
         id="path3466" /><path
         d="m 1157,2467 c 0,-2 0,-6 -3,-7 l -2,7 5,0"
         style="fill:#000000;fill-opacity:1;fill-rule:nonzero;stroke:none"
         id="path3468" /><path
         d="m 1349,2462 -7,5 7,0 0,-5"
         style="fill:#000000;fill-opacity:1;fill-rule:nonzero;stroke:none"
         id="path3470" /><path
         d="m 1171,2462 c 1,-2 -1,-3 -2,-4 l -5,0 0,7 c 2,0 6,0 7,-3"
         style="fill:#000000;fill-opacity:1;fill-rule:nonzero;stroke:none"
         id="path3472" /><path
         d="m 1198,2443 -5,0 2,10 c 4,0 2,-7 3,-10"
         style="fill:#000000;fill-opacity:1;fill-rule:nonzero;stroke:none"
         id="path3474" /><path
         d="m 1354,2446 4,0 0,7 -4,0 0,-7 z"
         style="fill:#000000;fill-opacity:1;fill-rule:nonzero;stroke:none"
         id="path3476" /><path
         d="m 1181,2438 5,0 0,5 -5,0 0,-5 z"
         style="fill:#000000;fill-opacity:1;fill-rule:nonzero;stroke:none"
         id="path3478" /><path
         d="m 1814,2434 10,0 -10,0"
         style="fill:#000000;fill-opacity:1;fill-rule:nonzero;stroke:none"
         id="path3480" /><path
         d="m 1238,2429 c 1,-3 -1,-4 -2,-5 l -5,0 0,5 7,0"
         style="fill:#000000;fill-opacity:1;fill-rule:nonzero;stroke:none"
         id="path3482" /><path
         d="m 1186,2426 c -1,-3 1,-7 -3,-9 l -2,0 0,9 5,0"
         style="fill:#000000;fill-opacity:1;fill-rule:nonzero;stroke:none"
         id="path3484" /><path
         d="m 1226,2417 0,-5 c -4,-2 -9,2 -7,7 3,0 6,1 7,-2"
         style="fill:#000000;fill-opacity:1;fill-rule:nonzero;stroke:none"
         id="path3486" /><path
         d="m 1860,2419 c -2,-2 -6,-3 -5,-7 l -5,0 c 1,4 5,10 10,7"
         style="fill:#000000;fill-opacity:1;fill-rule:nonzero;stroke:none"
         id="path3488" /><path
         d="m 1394,2400 0,-5 -9,0 0,10 c 4,2 6,-3 9,-5"
         style="fill:#000000;fill-opacity:1;fill-rule:nonzero;stroke:none"
         id="path3490" /><path
         d="m 1826,2388 -4,17 4,0 0,-17"
         style="fill:#000000;fill-opacity:1;fill-rule:nonzero;stroke:none"
         id="path3492" /><path
         d="m 1207,2398 5,0 0,4 -5,0 0,-4 z"
         style="fill:#000000;fill-opacity:1;fill-rule:nonzero;stroke:none"
         id="path3494" /><path
         d="m 1224,2395 -5,0 c 0,4 1,8 5,7 l 0,-7"
         style="fill:#000000;fill-opacity:1;fill-rule:nonzero;stroke:none"
         id="path3496" /><path
         d="m 1253,2386 7,0 0,4 -7,0 0,-4 z"
         style="fill:#000000;fill-opacity:1;fill-rule:nonzero;stroke:none"
         id="path3498" /><path
         d="m 1272,2383 -2,7 2,0 0,-7"
         style="fill:#000000;fill-opacity:1;fill-rule:nonzero;stroke:none"
         id="path3500" /><path
         d="m 1320,2388 c -1,-4 2,-10 -2,-12 -8,-1 -5,8 -5,12 l 7,0"
         style="fill:#000000;fill-opacity:1;fill-rule:nonzero;stroke:none"
         id="path3502" /><path
         d="m 1428,2371 -2,7 2,0 0,-7"
         style="fill:#000000;fill-opacity:1;fill-rule:nonzero;stroke:none"
         id="path3504" /><path
         d="m 1810,2376 c 0,-4 -4,-5 -8,-5 l -7,0 c 3,2 9,12 15,5"
         style="fill:#000000;fill-opacity:1;fill-rule:nonzero;stroke:none"
         id="path3506" /><path
         d="m 1277,2369 5,0 0,7 -5,0 0,-7 z"
         style="fill:#000000;fill-opacity:1;fill-rule:nonzero;stroke:none"
         id="path3508" /><path
         d="m 1776,2362 7,0 0,9 -7,0 0,-9 z"
         style="fill:#000000;fill-opacity:1;fill-rule:nonzero;stroke:none"
         id="path3510" /><path
         d="m 1370,2357 c 1,-3 -1,-4 -2,-5 l -5,0 0,12 c 7,3 5,-4 7,-7"
         style="fill:#000000;fill-opacity:1;fill-rule:nonzero;stroke:none"
         id="path3512" /><path
         d="m 1776,2345 c 1,1 2,3 5,2 l 0,-7 c -10,-5 -10,11 -17,10 l 0,12 12,-17"
         style="fill:#000000;fill-opacity:1;fill-rule:nonzero;stroke:none"
         id="path3514" /><path
         d="m 1589,2345 c 1,-7 -9,-14 -12,-15 3,5 1,19 12,15"
         style="fill:#000000;fill-opacity:1;fill-rule:nonzero;stroke:none"
         id="path3516" /><path
         d="m 1733,2345 c 2,-7 -3,-7 -7,-10 -6,1 3,12 7,10"
         style="fill:#000000;fill-opacity:1;fill-rule:nonzero;stroke:none"
         id="path3518" /><path
         d="m 1411,2340 0,-7 -5,0 0,9 c 3,1 4,-1 5,-2"
         style="fill:#000000;fill-opacity:1;fill-rule:nonzero;stroke:none"
         id="path3520" /><path
         d="m 1675,2340 c -2,-5 -8,-10 -14,-10 1,7 6,18 14,10"
         style="fill:#000000;fill-opacity:1;fill-rule:nonzero;stroke:none"
         id="path3522" /><path
         d="m 1702,2340 c -2,-8 -6,-17 -12,-22 -3,3 -7,6 -5,10 2,1 3,-1 5,-2 9,3 3,15 12,14"
         style="fill:#000000;fill-opacity:1;fill-rule:nonzero;stroke:none"
         id="path3524" /><path
         d="m 1505,2328 9,0 0,7 -9,0 0,-7 z"
         style="fill:#000000;fill-opacity:1;fill-rule:nonzero;stroke:none"
         id="path3526" /><path
         d="m 1498,2323 -3,7 3,0 0,-7"
         style="fill:#000000;fill-opacity:1;fill-rule:nonzero;stroke:none"
         id="path3528" /><path
         d="m 1654,2323 -5,0 0,7 c 3,0 4,-4 5,-7"
         style="fill:#000000;fill-opacity:1;fill-rule:nonzero;stroke:none"
         id="path3530" /><path
         d="m 1390,2194 -10,-20 10,20"
         style="fill:#ffffff;fill-opacity:1;fill-rule:nonzero;stroke:none"
         id="path3532" /><path
         d="m 509,2011 -17,-12 c -5,11 1,33 -5,43 21,6 15,-21 22,-31"
         style="fill:#000000;fill-opacity:1;fill-rule:nonzero;stroke:none"
         id="path3534" /><path
         d="m 559,1898 c -1,-30 -9,-73 7,-96 24,-69 92,-151 32,-225 -19,-14 -37,-38 -60,-46 -30,-36 -32,-87 -41,-129 -15,-36 -30,-71 -39,-108 -24,-51 -12,-111 -36,-168 -18,-30 -53,-56 -57,-94 -13,-25 -39,-31 -63,-41 -21,-1 -33,18 -50,27 -3,42 -54,19 -62,60 5,27 -56,10 -34,50 -42,23 2,69 -36,96 -2,28 19,39 22,65 85,140 169,280 208,439 9,49 -13,92 -24,137 3,14 19,8 27,17 5,-13 18,-24 29,-32 l -5,-4 c 12,-8 17,-41 38,-24 20,9 12,30 17,45 30,33 65,49 82,89 l 7,22 c 12,-27 30,-51 38,-80"
         style="fill:#000000;fill-opacity:1;fill-rule:nonzero;stroke:none"
         id="path3536" /><path
         d="m 408,1848 0,-5 c -11,0 -17,7 -14,19 10,4 12,-8 14,-14"
         style="fill:#000000;fill-opacity:1;fill-rule:nonzero;stroke:none"
         id="path3538" /><path
         d="m 144,1207 c -13,4 -5,21 -7,31 l 9,8 c 10,-14 9,-26 -2,-39"
         style="fill:#ffffff;fill-opacity:1;fill-rule:nonzero;stroke:none"
         id="path3540" /><path
         d="m 170,1181 c -3,-11 -1,-24 -12,-31 -4,1 -10,7 -12,12 0,12 0,24 10,31 6,-1 10,-8 14,-12"
         style="fill:#ffffff;fill-opacity:1;fill-rule:nonzero;stroke:none"
         id="path3542" /><path
         d="m 209,1118 c -9,-15 -24,-5 -36,-4 -4,6 -2,16 -3,24 11,35 61,10 39,-20"
         style="fill:#ffffff;fill-opacity:1;fill-rule:nonzero;stroke:none"
         id="path3544" /><path
         d="m 247,1097 c -7,-10 7,-37 -17,-31 -10,-2 -19,3 -26,12 -4,18 5,33 19,43 10,-3 21,-14 24,-24"
         style="fill:#ffffff;fill-opacity:1;fill-rule:nonzero;stroke:none"
         id="path3546" /><path
         d="m 317,1032 c -12,-23 -37,-7 -53,-5 4,13 -13,28 -2,41 -3,2 -4,6 -8,5 5,11 17,29 34,29 29,-15 31,-43 29,-70"
         style="fill:#ffffff;fill-opacity:1;fill-rule:nonzero;stroke:none"
         id="path3548" /><path
         d="m 2246,1056 -2,-24 c -5,3 -11,4 -14,10 -4,13 3,31 21,31 14,-4 -5,-10 -5,-17"
         style="fill:#ffffff;fill-opacity:1;fill-rule:nonzero;stroke:none"
         id="path3550" /><path
         d="m 2280,1037 c -2,-7 -3,-14 -10,-19 -7,10 -16,22 -12,33 6,-7 17,-5 22,-14"
         style="fill:#ffffff;fill-opacity:1;fill-rule:nonzero;stroke:none"
         id="path3552" /><path
         d="m 2309,1039 c -5,-13 -7,-31 -22,-36 6,15 -14,31 10,41 5,1 9,-1 12,-5"
         style="fill:#ffffff;fill-opacity:1;fill-rule:nonzero;stroke:none"
         id="path3554" /><path
         d="m 2299,970 c 30,-30 67,-41 103,-56 -14,-14 8,-25 0,-43 -8,-12 -21,-15 -33,-17 -12,14 3,45 -12,60 -18,-4 -15,-28 -34,-28 -9,19 -24,39 -14,62 -6,5 -7,13 -17,10 -3,-11 -11,-21 -22,-27 -6,0 -16,-1 -16,7 1,18 4,35 14,48 -1,15 -17,27 -14,41 7,-22 37,-32 45,-57"
         style="fill:#ffffff;fill-opacity:1;fill-rule:nonzero;stroke:none"
         id="path3556" /><path
         d="m 2323,1020 c 5,-16 -7,-32 -14,-43 1,13 -16,50 14,43"
         style="fill:#ffffff;fill-opacity:1;fill-rule:nonzero;stroke:none"
         id="path3558" /><path
         d="m 2345,1008 c -4,-14 -9,-29 -24,-36 2,11 5,28 14,38 3,0 8,2 10,-2"
         style="fill:#ffffff;fill-opacity:1;fill-rule:nonzero;stroke:none"
         id="path3560" /><path
         d="m 2364,991 c 2,-9 -5,-21 -10,-31 -6,7 -6,7 -16,10 -5,12 15,26 26,21"
         style="fill:#ffffff;fill-opacity:1;fill-rule:nonzero;stroke:none"
         id="path3562" /><path
         d="m 2275,982 -7,-22 7,22"
         style="fill:#000000;fill-opacity:1;fill-rule:nonzero;stroke:none"
         id="path3564" /><path
         d="m 2400,974 c -4,-11 -12,-16 -22,-24 -4,2 -8,6 -12,10 5,16 19,31 34,14"
         style="fill:#ffffff;fill-opacity:1;fill-rule:nonzero;stroke:none"
         id="path3566" /><path
         d="m 2426,962 c 2,-13 -9,-20 -19,-24 l -5,0 c -3,12 5,26 12,36 7,-1 11,-5 12,-12"
         style="fill:#ffffff;fill-opacity:1;fill-rule:nonzero;stroke:none"
         id="path3568" /><path
         d="m 2335,907 c -9,3 1,9 -2,17 l 7,0 -5,-17"
         style="fill:#000000;fill-opacity:1;fill-rule:nonzero;stroke:none"
         id="path3570" /><path
         d="m 2383,902 c 4,-7 2,-17 3,-26 -5,7 -12,22 -3,26"
         style="fill:#000000;fill-opacity:1;fill-rule:nonzero;stroke:none"
         id="path3572" /><path
         d="m 2544,245 c -4,-9 -13,-22 -24,-17 l -5,0 c -1,14 -5,35 12,46 22,3 5,-22 17,-29"
         style="fill:#ffffff;fill-opacity:1;fill-rule:nonzero;stroke:none"
         id="path3574" /><path
         d="m 2530,202 c 3,-17 -3,-35 -20,-39 -8,-1 -16,4 -19,12 -3,23 22,42 39,27"
         style="fill:#ffffff;fill-opacity:1;fill-rule:nonzero;stroke:none"
         id="path3576" /><path
         d="m 2479,170 c 3,-13 -3,-33 -12,-43 -11,9 -20,-4 -26,12 -14,30 21,31 38,31"
         style="fill:#ffffff;fill-opacity:1;fill-rule:nonzero;stroke:none"
         id="path3578" /><path
         d="m 2436,130 c 1,-15 -2,-33 -19,-34 -13,-3 -13,13 -19,19 -3,14 3,28 16,31 14,5 21,-6 22,-16"
         style="fill:#ffffff;fill-opacity:1;fill-rule:nonzero;stroke:none"
         id="path3580" /></g></g></svg>