<?xml version="1.0" encoding="UTF-8" standalone="no"?>
<!-- Created with Inkscape (http://www.inkscape.org/) -->

<svg
   xmlns:dc="http://purl.org/dc/elements/1.1/"
   xmlns:cc="http://creativecommons.org/ns#"
   xmlns:rdf="http://www.w3.org/1999/02/22-rdf-syntax-ns#"
   xmlns:svg="http://www.w3.org/2000/svg"
   xmlns="http://www.w3.org/2000/svg"
   xmlns:sodipodi="http://sodipodi.sourceforge.net/DTD/sodipodi-0.dtd"
   xmlns:inkscape="http://www.inkscape.org/namespaces/inkscape"
   width="347.81848"
   height="723.40771"
   id="svg3507"
   version="1.1"
   inkscape:version="0.48.4 r9939"
   sodipodi:docname="djembeman-simple2.svg">
  <defs
     id="defs3509" />
  <sodipodi:namedview
     id="base"
     pagecolor="#ffffff"
     bordercolor="#666666"
     borderopacity="1.0"
     inkscape:pageopacity="0.0"
     inkscape:pageshadow="2"
     inkscape:zoom="0.35"
     inkscape:cx="173.90923"
     inkscape:cy="361.70386"
     inkscape:document-units="px"
     inkscape:current-layer="layer1"
     showgrid="false"
     inkscape:window-width="484"
     inkscape:window-height="413"
     inkscape:window-x="557"
     inkscape:window-y="243"
     inkscape:window-maximized="0"
     fit-margin-top="0"
     fit-margin-left="0"
     fit-margin-right="0"
     fit-margin-bottom="0" />
  <metadata
     id="metadata3512">
    <rdf:RDF>
      <cc:Work
         rdf:about="">
        <dc:format>image/svg+xml</dc:format>
        <dc:type
           rdf:resource="http://purl.org/dc/dcmitype/StillImage" />
        <dc:title></dc:title>
      </cc:Work>
    </rdf:RDF>
  </metadata>
  <g
     inkscape:label="Layer 1"
     inkscape:groupmode="layer"
     id="layer1"
     transform="translate(-201.09077,-170.65833)">
    <path
       inkscape:connector-curvature="0"
       style="fill:#000000;fill-opacity:0.1;fill-rule:nonzero;stroke:none"
       d="m 410.05806,170.65833 c 15.99242,24.5151 -4.06216,-1.10618 -7.125,5.96875 13.68744,17.95133 1.08867,4.1048 -8.34375,-1.71875 9.41571,12.21692 14.29736,19.42187 -2.90625,10.40625 7.87293,10.02816 23.60184,14.94675 10.375,22.03125 33.76006,-0.81314 55.4294,27.54901 71.8125,53.84375 12.54409,14.31761 40.30548,41.56965 6.71875,50.34375 -23.30928,4.11676 -62.65741,31.64726 -66.21875,-8.1875 -7.50488,-25.36918 -46.73165,-38.09767 -36.8125,-68.0625 -7.75527,19.19216 -8.72914,-31.52159 -9.75,-3.28125 -5.21229,15.26161 -18.97195,-33.9153 -9.5,-2 7.12568,18.76547 -16.61066,-3.34828 -0.90625,14.0625 9.19549,14.64396 -24.24241,-3.89039 -1.59375,11.03125 22.01671,19.43599 4.31014,61.36319 27.8125,81.0625 -15.99296,8.83239 -46.86432,29.61561 -73.4375,33.9375 -42.7184,13.01228 -7.54121,57.438 2.1875,82.4375 7.3206,3.60229 25.78991,32.7355 28.1875,40.46875 1.89236,-4.59528 14.96477,-8.89325 18.3125,-8.78125 -9.23767,-9.4013 -19.23983,-30.6681 -24.6875,-40 -13.58702,-20.99466 -25.45788,-55.62321 10.875,-56.8125 13.35768,-3.48296 43.46314,-13.86815 37.21875,-6.59375 26.019,30.49284 -8.61049,66.5689 -7.8125,100.125 -3.76555,10.09635 -9.18432,9.4777 -14.9375,3.96875 -0.16571,0.22387 -0.492,0.49618 -1,0.84375 -14.33481,2.35875 -22.53936,19.78846 -38.90625,13.78125 -35.64346,-3.52051 -56.5489,-36.61986 -87.84376,-48.875 -31.62244,-15.09056 -38.44672,21.28565 -22.125,41.15625 15.6972,43.24706 14.87565,90.50791 27.375,134.1875 2.57685,11.72633 -8.47563,48.82398 14.71875,37.625 -17.06589,17.75276 23.73763,-17.74551 -3.75,-4.9375 -3.5161,0.31989 16.55858,-20.07912 6.59375,-32.28125 -15.20865,-32.37782 0.5603,-66.23369 -3.75,-99.78125 -1.64556,-15.24436 -12.15878,-33.18794 8.0625,-18.46875 20.82481,12.03141 57.43248,15.49365 50.03126,47.09375 21.38941,1.12749 -4.95443,12.73132 0.90625,24.25 -15.11626,0.77877 27.31678,8.83227 1.84375,5.65625 5.13633,0.79171 -8.68767,3.01053 7.625,8.46875 -10.58782,5.90832 -1.28748,1.04483 2.875,6.6875 -2.25308,14.15815 26.39569,22.626 19.9375,25.5625 8.29721,7.22601 16.4595,-17.04733 14,3.1875 1.70514,5.14947 9.16108,-8.14406 0.375,7.09375 8.37195,-7.40522 7.97149,9.47805 20.28125,-2.09375 5.15126,4.34375 3.48007,-2.49541 8,0.875 4.02735,5.58966 18.75669,4.41923 21.375,-8.71875 2.81444,13.19763 13.84697,1.77275 19.1875,1.46875 7.36264,-5.11563 22.27634,-21.1185 26.46875,-21.8125 14.0169,-5.19424 -0.42325,-31.33398 16.15625,-29.34375 -10.8267,-10.2564 -2.87123,-34.78323 16.75,-45.0625 40.34033,-10.20382 4.65422,45.73735 12.375,66.09375 13.54306,37.0277 -8.76659,74.02407 -9.46875,111.375 -2.6832,31.6875 -13.77181,61.04198 -25.5,88.3125 8.32479,26.03679 19.94611,49.20063 11.25,73.6875 3.81128,23.39767 30.75723,33.99125 40.59375,7.84375 -0.78487,-29.31071 -25.62784,-57.61144 -15.40625,-89.5625 4.12468,-28.10369 4.00932,-57.24161 11.90625,-85.03125 9.04164,-32.96676 11.8298,-66.92387 16.3125,-100.625 6.32369,-31.00564 13.84409,-61.97763 21.875,-92.34375 3.71947,-37.99716 -33.81033,-17.578 -51.625,-7.40625 -26.59941,5.68996 -55.47145,16.7615 -72.09375,-5.71875 -20.95773,-4.89272 -15.55639,-52.11879 -3.53125,-72.5 11.84971,-19.84101 9.51157,-45.01124 25.28125,-63.03125 15.981,-21.10815 41.01494,-33.50704 66.53125,-38.375 29.13792,-18.46809 -2.13734,-52.42915 -17.25,-70.125 -24.98224,-31.30232 -52.89976,-60.60143 -85.90625,-83.40625 z m -31.625,62.25 c -0.29639,0.72989 -0.54103,1.44611 -0.78125,2.15625 0.25305,-0.64069 0.51367,-1.36246 0.78125,-2.15625 z m -4.90625,268.28125 c 15.8056,5.55785 24.07326,-0.0529 45.21875,8.15625 18.43785,0.0584 23.92341,28.73628 26.1875,40.03125 -1.95306,-6.42866 -12.35027,-11.56524 -21.28125,-14.875 14.46351,9.84426 24.86433,30.62891 27.75,36.1875 0.0445,-0.29161 0.0857,-0.58002 0.125,-0.875 0.97086,2.92439 0.8852,2.82092 -0.125,0.875 -3.26606,21.40696 -20.44204,33.81652 -37.625,47.9375 -15.84535,-3.729 -39.82084,7.21013 -59.4375,-10.78125 -20.04254,2.99861 -25.28246,-32.16235 -29.5,-48.875 -1.75925,-25.22886 7.57205,-38.12767 28.9375,-45.25 2.88667,3.96721 12.74419,56.09904 20.5,43.84375 13.8417,16.43664 9.06052,8.18455 6.375,-6.53125 2.05199,0.46738 3.80793,1.27612 5.3125,2.25 -10.31044,-20.41913 21.96207,26.14989 9.03125,-1.5625 -7.2151,-9.91175 0.64467,-9.11364 4.59375,-8.15625 -0.83001,-15.11713 -34.36742,-32.52097 -26.0625,-42.375 z m 36.65625,29.1875 c -0.2852,-0.0519 0.27223,0.10797 1.96875,0.5 -0.99591,-0.2579 -1.76119,-0.46227 -1.96875,-0.5 z m 34.75,19.0625 c 0.14008,0.47398 0.26827,0.94993 0.3125,1.4375 -0.0804,-0.39015 -0.22233,-0.98787 -0.3125,-1.4375 z m -12.9375,74.78125 0.34375,0.3125 -0.34375,-0.3125 z m -41.03125,16.65625 c -1.48798,0.70693 0.17949,0.52234 0,0 z m -133.21876,12.90625 c -0.37484,-0.0632 -1.90385,0.64566 -1.28125,1.15625 1.30984,-0.80153 1.50616,-1.11835 1.28125,-1.15625 z"
       id="path3086" />
    <path
       style="fill:#000000;fill-opacity:0.1;fill-rule:nonzero;stroke:none"
       d="m 265.5268,669.18958 c 5.56453,21.2086 10.19388,42.50454 -7.97092,57.78256 -1.42565,19.88145 -15.45784,74.47151 -40.02725,42.78599 -18.95079,-25.62744 17.13769,-45.11945 18.66217,-70.57651 6.36383,-11.20622 -2.30815,-35.15814 10.83935,-20.81827 6.78354,-3.89482 14.45162,-31.38373 18.49665,-9.17377 z"
       id="path3536"
       inkscape:connector-curvature="0" />
  </g>
</svg>
